<?xml version="1.0" encoding="UTF-8" standalone="no"?>
<!DOCTYPE svg PUBLIC "-//W3C//DTD SVG 1.1//EN"
 "http://www.w3.org/Graphics/SVG/1.1/DTD/svg11.dtd">
<!-- Generated by graphviz version 2.43.0 (0)
 -->
<!-- Title: fx_graph Pages: 1 -->
<svg width="400pt" height="345pt"
 viewBox="0.00 0.00 400.00 345.00" xmlns="http://www.w3.org/2000/svg" xmlns:xlink="http://www.w3.org/1999/xlink">
<g id="graph0" class="graph" transform="scale(1 1) rotate(0) translate(4 341)">
<title>fx_graph</title>
<polygon fill="white" stroke="transparent" points="-4,4 -4,-341 396,-341 396,4 -4,4"/>
<!-- buf0 -->
<g id="node1" class="node">
<title>buf0</title>
<path fill="#ffe1ff" stroke="black" d="M12,-129.5C12,-129.5 380,-129.5 380,-129.5 386,-129.5 392,-135.5 392,-141.5 392,-141.5 392,-324.5 392,-324.5 392,-330.5 386,-336.5 380,-336.5 380,-336.5 12,-336.5 12,-336.5 6,-336.5 0,-330.5 0,-324.5 0,-324.5 0,-141.5 0,-141.5 0,-135.5 6,-129.5 12,-129.5"/>
<text text-anchor="middle" x="196" y="-321.3" font-family="Times,serif" font-size="14.00" fill="#000000">name=%buf0</text>
<polyline fill="none" stroke="black" points="0,-313.5 392,-313.5 "/>
<text text-anchor="middle" x="196" y="-298.3" font-family="Times,serif" font-size="14.00" fill="#000000">op_code=call_function</text>
<polyline fill="none" stroke="black" points="0,-290.5 392,-290.5 "/>
<text text-anchor="middle" x="196" y="-275.3" font-family="Times,serif" font-size="14.00" fill="#000000">target=torch._inductor.debug.compute: fused_clamp</text>
<polyline fill="none" stroke="black" points="0,-267.5 392,-267.5 "/>
<text text-anchor="middle" x="196" y="-252.3" font-family="Times,serif" font-size="14.00" fill="#000000">kwargs={device: cuda:0,}</text>
<polyline fill="none" stroke="black" points="0,-244.5 392,-244.5 "/>
<text text-anchor="middle" x="196" y="-229.3" font-family="Times,serif" font-size="14.00" fill="#000000">num_users=1</text>
<polyline fill="none" stroke="black" points="0,-221.5 392,-221.5 "/>
<text text-anchor="middle" x="196" y="-206.3" font-family="Times,serif" font-size="14.00" fill="#000000">dtype=None</text>
<polyline fill="none" stroke="black" points="0,-198.5 392,-198.5 "/>
<text text-anchor="middle" x="196" y="-183.3" font-family="Times,serif" font-size="14.00" fill="#000000">shape=(1, 1)</text>
<polyline fill="none" stroke="black" points="0,-175.5 392,-175.5 "/>
<text text-anchor="middle" x="196" y="-160.3" font-family="Times,serif" font-size="14.00" fill="#000000">requires_grad=None</text>
<polyline fill="none" stroke="black" points="0,-152.5 392,-152.5 "/>
<text text-anchor="middle" x="196" y="-137.3" font-family="Times,serif" font-size="14.00" fill="#000000">stride=None</text>
</g>
<!-- output -->
<g id="node2" class="node">
<title>output</title>
<path fill="PowderBlue" stroke="black" d="M141.5,-0.5C141.5,-0.5 250.5,-0.5 250.5,-0.5 256.5,-0.5 262.5,-6.5 262.5,-12.5 262.5,-12.5 262.5,-80.5 262.5,-80.5 262.5,-86.5 256.5,-92.5 250.5,-92.5 250.5,-92.5 141.5,-92.5 141.5,-92.5 135.5,-92.5 129.5,-86.5 129.5,-80.5 129.5,-80.5 129.5,-12.5 129.5,-12.5 129.5,-6.5 135.5,-0.5 141.5,-0.5"/>
<text text-anchor="middle" x="196" y="-77.3" font-family="Times,serif" font-size="14.00" fill="#000000">name=%output</text>
<polyline fill="none" stroke="black" points="129.5,-69.5 262.5,-69.5 "/>
<text text-anchor="middle" x="196" y="-54.3" font-family="Times,serif" font-size="14.00" fill="#000000">op_code=output</text>
<polyline fill="none" stroke="black" points="129.5,-46.5 262.5,-46.5 "/>
<text text-anchor="middle" x="196" y="-31.3" font-family="Times,serif" font-size="14.00" fill="#000000">target=output</text>
<polyline fill="none" stroke="black" points="129.5,-23.5 262.5,-23.5 "/>
<text text-anchor="middle" x="196" y="-8.3" font-family="Times,serif" font-size="14.00" fill="#000000">num_users=0</text>
</g>
<!-- buf0&#45;&gt;output -->
<g id="edge1" class="edge">
<title>buf0&#45;&gt;output</title>
<path fill="none" stroke="black" d="M196,-129.5C196,-120.3 196,-111.24 196,-102.69"/>
<polygon fill="black" stroke="black" points="199.5,-102.53 196,-92.53 192.5,-102.53 199.5,-102.53"/>
</g>
</g>
</svg>
