<?xml version="1.0" encoding="UTF-8" standalone="no"?>
<!DOCTYPE svg PUBLIC "-//W3C//DTD SVG 1.1//EN"
 "http://www.w3.org/Graphics/SVG/1.1/DTD/svg11.dtd">
<!-- Generated by graphviz version 2.43.0 (0)
 -->
<!-- Title: fx_graph Pages: 1 -->
<svg width="373pt" height="474pt"
 viewBox="0.00 0.00 373.00 474.00" xmlns="http://www.w3.org/2000/svg" xmlns:xlink="http://www.w3.org/1999/xlink">
<g id="graph0" class="graph" transform="scale(1 1) rotate(0) translate(4 470)">
<title>fx_graph</title>
<polygon fill="white" stroke="transparent" points="-4,4 -4,-470 369,-470 369,4 -4,4"/>
<!-- arg1_1 -->
<g id="node1" class="node">
<title>arg1_1</title>
<path fill="AliceBlue" stroke="black" d="M110,-373.5C110,-373.5 255,-373.5 255,-373.5 261,-373.5 267,-379.5 267,-385.5 267,-385.5 267,-453.5 267,-453.5 267,-459.5 261,-465.5 255,-465.5 255,-465.5 110,-465.5 110,-465.5 104,-465.5 98,-459.5 98,-453.5 98,-453.5 98,-385.5 98,-385.5 98,-379.5 104,-373.5 110,-373.5"/>
<text text-anchor="middle" x="182.5" y="-450.3" font-family="Times,serif" font-size="14.00" fill="#000000">name=%arg1_1</text>
<polyline fill="none" stroke="black" points="98,-442.5 267,-442.5 "/>
<text text-anchor="middle" x="182.5" y="-427.3" font-family="Times,serif" font-size="14.00" fill="#000000">op_code=placeholder</text>
<polyline fill="none" stroke="black" points="98,-419.5 267,-419.5 "/>
<text text-anchor="middle" x="182.5" y="-404.3" font-family="Times,serif" font-size="14.00" fill="#000000">target=arg1_1</text>
<polyline fill="none" stroke="black" points="98,-396.5 267,-396.5 "/>
<text text-anchor="middle" x="182.5" y="-381.3" font-family="Times,serif" font-size="14.00" fill="#000000">num_users=1</text>
</g>
<!-- buf0 -->
<g id="node2" class="node">
<title>buf0</title>
<path fill="#caff70" stroke="black" d="M12,-129.5C12,-129.5 353,-129.5 353,-129.5 359,-129.5 365,-135.5 365,-141.5 365,-141.5 365,-324.5 365,-324.5 365,-330.5 359,-336.5 353,-336.5 353,-336.5 12,-336.5 12,-336.5 6,-336.5 0,-330.5 0,-324.5 0,-324.5 0,-141.5 0,-141.5 0,-135.5 6,-129.5 12,-129.5"/>
<text text-anchor="middle" x="182.5" y="-321.3" font-family="Times,serif" font-size="14.00" fill="#000000">name=%buf0</text>
<polyline fill="none" stroke="black" points="0,-313.5 365,-313.5 "/>
<text text-anchor="middle" x="182.5" y="-298.3" font-family="Times,serif" font-size="14.00" fill="#000000">op_code=call_function</text>
<polyline fill="none" stroke="black" points="0,-290.5 365,-290.5 "/>
<text text-anchor="middle" x="182.5" y="-275.3" font-family="Times,serif" font-size="14.00" fill="#000000">target=torch._inductor.debug.compute: fused_gt</text>
<polyline fill="none" stroke="black" points="0,-267.5 365,-267.5 "/>
<text text-anchor="middle" x="182.5" y="-252.3" font-family="Times,serif" font-size="14.00" fill="#000000">kwargs={device: cuda:0,}</text>
<polyline fill="none" stroke="black" points="0,-244.5 365,-244.5 "/>
<text text-anchor="middle" x="182.5" y="-229.3" font-family="Times,serif" font-size="14.00" fill="#000000">num_users=1</text>
<polyline fill="none" stroke="black" points="0,-221.5 365,-221.5 "/>
<text text-anchor="middle" x="182.5" y="-206.3" font-family="Times,serif" font-size="14.00" fill="#000000">dtype=None</text>
<polyline fill="none" stroke="black" points="0,-198.5 365,-198.5 "/>
<text text-anchor="middle" x="182.5" y="-183.3" font-family="Times,serif" font-size="14.00" fill="#000000">shape=(s0, 1)</text>
<polyline fill="none" stroke="black" points="0,-175.5 365,-175.5 "/>
<text text-anchor="middle" x="182.5" y="-160.3" font-family="Times,serif" font-size="14.00" fill="#000000">requires_grad=None</text>
<polyline fill="none" stroke="black" points="0,-152.5 365,-152.5 "/>
<text text-anchor="middle" x="182.5" y="-137.3" font-family="Times,serif" font-size="14.00" fill="#000000">stride=None</text>
</g>
<!-- arg1_1&#45;&gt;buf0 -->
<g id="edge1" class="edge">
<title>arg1_1&#45;&gt;buf0</title>
<path fill="none" stroke="black" d="M182.5,-373.37C182.5,-365.06 182.5,-356.06 182.5,-346.77"/>
<polygon fill="black" stroke="black" points="186,-346.59 182.5,-336.59 179,-346.59 186,-346.59"/>
</g>
<!-- output -->
<g id="node3" class="node">
<title>output</title>
<path fill="PowderBlue" stroke="black" d="M128,-0.5C128,-0.5 237,-0.5 237,-0.5 243,-0.5 249,-6.5 249,-12.5 249,-12.5 249,-80.5 249,-80.5 249,-86.5 243,-92.5 237,-92.5 237,-92.5 128,-92.5 128,-92.5 122,-92.5 116,-86.5 116,-80.5 116,-80.5 116,-12.5 116,-12.5 116,-6.5 122,-0.5 128,-0.5"/>
<text text-anchor="middle" x="182.5" y="-77.3" font-family="Times,serif" font-size="14.00" fill="#000000">name=%output</text>
<polyline fill="none" stroke="black" points="116,-69.5 249,-69.5 "/>
<text text-anchor="middle" x="182.5" y="-54.3" font-family="Times,serif" font-size="14.00" fill="#000000">op_code=output</text>
<polyline fill="none" stroke="black" points="116,-46.5 249,-46.5 "/>
<text text-anchor="middle" x="182.5" y="-31.3" font-family="Times,serif" font-size="14.00" fill="#000000">target=output</text>
<polyline fill="none" stroke="black" points="116,-23.5 249,-23.5 "/>
<text text-anchor="middle" x="182.5" y="-8.3" font-family="Times,serif" font-size="14.00" fill="#000000">num_users=0</text>
</g>
<!-- buf0&#45;&gt;output -->
<g id="edge2" class="edge">
<title>buf0&#45;&gt;output</title>
<path fill="none" stroke="black" d="M182.5,-129.5C182.5,-120.3 182.5,-111.24 182.5,-102.69"/>
<polygon fill="black" stroke="black" points="186,-102.53 182.5,-92.53 179,-102.53 186,-102.53"/>
</g>
</g>
</svg>
