<?xml version="1.0" encoding="UTF-8" standalone="no"?>
<!DOCTYPE svg PUBLIC "-//W3C//DTD SVG 1.1//EN"
 "http://www.w3.org/Graphics/SVG/1.1/DTD/svg11.dtd">
<!-- Generated by graphviz version 2.43.0 (0)
 -->
<!-- Title: fx_graph Pages: 1 -->
<svg width="385pt" height="474pt"
 viewBox="0.00 0.00 385.00 474.00" xmlns="http://www.w3.org/2000/svg" xmlns:xlink="http://www.w3.org/1999/xlink">
<g id="graph0" class="graph" transform="scale(1 1) rotate(0) translate(4 470)">
<title>fx_graph</title>
<polygon fill="white" stroke="transparent" points="-4,4 -4,-470 381,-470 381,4 -4,4"/>
<!-- primals_1 -->
<g id="node1" class="node">
<title>primals_1</title>
<path fill="AliceBlue" stroke="black" d="M116,-373.5C116,-373.5 261,-373.5 261,-373.5 267,-373.5 273,-379.5 273,-385.5 273,-385.5 273,-453.5 273,-453.5 273,-459.5 267,-465.5 261,-465.5 261,-465.5 116,-465.5 116,-465.5 110,-465.5 104,-459.5 104,-453.5 104,-453.5 104,-385.5 104,-385.5 104,-379.5 110,-373.5 116,-373.5"/>
<text text-anchor="middle" x="188.5" y="-450.3" font-family="Times,serif" font-size="14.00" fill="#000000">name=%primals_1</text>
<polyline fill="none" stroke="black" points="104,-442.5 273,-442.5 "/>
<text text-anchor="middle" x="188.5" y="-427.3" font-family="Times,serif" font-size="14.00" fill="#000000">op_code=placeholder</text>
<polyline fill="none" stroke="black" points="104,-419.5 273,-419.5 "/>
<text text-anchor="middle" x="188.5" y="-404.3" font-family="Times,serif" font-size="14.00" fill="#000000">target=primals_1</text>
<polyline fill="none" stroke="black" points="104,-396.5 273,-396.5 "/>
<text text-anchor="middle" x="188.5" y="-381.3" font-family="Times,serif" font-size="14.00" fill="#000000">num_users=1</text>
</g>
<!-- buf0 -->
<g id="node2" class="node">
<title>buf0</title>
<path fill="#98f5ff" stroke="black" d="M12,-129.5C12,-129.5 365,-129.5 365,-129.5 371,-129.5 377,-135.5 377,-141.5 377,-141.5 377,-324.5 377,-324.5 377,-330.5 371,-336.5 365,-336.5 365,-336.5 12,-336.5 12,-336.5 6,-336.5 0,-330.5 0,-324.5 0,-324.5 0,-141.5 0,-141.5 0,-135.5 6,-129.5 12,-129.5"/>
<text text-anchor="middle" x="188.5" y="-321.3" font-family="Times,serif" font-size="14.00" fill="#000000">name=%buf0</text>
<polyline fill="none" stroke="black" points="0,-313.5 377,-313.5 "/>
<text text-anchor="middle" x="188.5" y="-298.3" font-family="Times,serif" font-size="14.00" fill="#000000">op_code=call_function</text>
<polyline fill="none" stroke="black" points="0,-290.5 377,-290.5 "/>
<text text-anchor="middle" x="188.5" y="-275.3" font-family="Times,serif" font-size="14.00" fill="#000000">target=torch._inductor.debug.compute: fused_mul</text>
<polyline fill="none" stroke="black" points="0,-267.5 377,-267.5 "/>
<text text-anchor="middle" x="188.5" y="-252.3" font-family="Times,serif" font-size="14.00" fill="#000000">kwargs={device: cuda:0,}</text>
<polyline fill="none" stroke="black" points="0,-244.5 377,-244.5 "/>
<text text-anchor="middle" x="188.5" y="-229.3" font-family="Times,serif" font-size="14.00" fill="#000000">num_users=1</text>
<polyline fill="none" stroke="black" points="0,-221.5 377,-221.5 "/>
<text text-anchor="middle" x="188.5" y="-206.3" font-family="Times,serif" font-size="14.00" fill="#000000">dtype=None</text>
<polyline fill="none" stroke="black" points="0,-198.5 377,-198.5 "/>
<text text-anchor="middle" x="188.5" y="-183.3" font-family="Times,serif" font-size="14.00" fill="#000000">shape=(1, 1)</text>
<polyline fill="none" stroke="black" points="0,-175.5 377,-175.5 "/>
<text text-anchor="middle" x="188.5" y="-160.3" font-family="Times,serif" font-size="14.00" fill="#000000">requires_grad=None</text>
<polyline fill="none" stroke="black" points="0,-152.5 377,-152.5 "/>
<text text-anchor="middle" x="188.5" y="-137.3" font-family="Times,serif" font-size="14.00" fill="#000000">stride=None</text>
</g>
<!-- primals_1&#45;&gt;buf0 -->
<g id="edge1" class="edge">
<title>primals_1&#45;&gt;buf0</title>
<path fill="none" stroke="black" d="M188.5,-373.37C188.5,-365.06 188.5,-356.06 188.5,-346.77"/>
<polygon fill="black" stroke="black" points="192,-346.59 188.5,-336.59 185,-346.59 192,-346.59"/>
</g>
<!-- output -->
<g id="node3" class="node">
<title>output</title>
<path fill="PowderBlue" stroke="black" d="M134,-0.5C134,-0.5 243,-0.5 243,-0.5 249,-0.5 255,-6.5 255,-12.5 255,-12.5 255,-80.5 255,-80.5 255,-86.5 249,-92.5 243,-92.5 243,-92.5 134,-92.5 134,-92.5 128,-92.5 122,-86.5 122,-80.5 122,-80.5 122,-12.5 122,-12.5 122,-6.5 128,-0.5 134,-0.5"/>
<text text-anchor="middle" x="188.5" y="-77.3" font-family="Times,serif" font-size="14.00" fill="#000000">name=%output</text>
<polyline fill="none" stroke="black" points="122,-69.5 255,-69.5 "/>
<text text-anchor="middle" x="188.5" y="-54.3" font-family="Times,serif" font-size="14.00" fill="#000000">op_code=output</text>
<polyline fill="none" stroke="black" points="122,-46.5 255,-46.5 "/>
<text text-anchor="middle" x="188.5" y="-31.3" font-family="Times,serif" font-size="14.00" fill="#000000">target=output</text>
<polyline fill="none" stroke="black" points="122,-23.5 255,-23.5 "/>
<text text-anchor="middle" x="188.5" y="-8.3" font-family="Times,serif" font-size="14.00" fill="#000000">num_users=0</text>
</g>
<!-- buf0&#45;&gt;output -->
<g id="edge2" class="edge">
<title>buf0&#45;&gt;output</title>
<path fill="none" stroke="black" d="M188.5,-129.5C188.5,-120.3 188.5,-111.24 188.5,-102.69"/>
<polygon fill="black" stroke="black" points="192,-102.53 188.5,-92.53 185,-102.53 192,-102.53"/>
</g>
</g>
</svg>
