<?xml version="1.0" encoding="UTF-8" standalone="no"?>
<!DOCTYPE svg PUBLIC "-//W3C//DTD SVG 1.1//EN"
 "http://www.w3.org/Graphics/SVG/1.1/DTD/svg11.dtd">
<!-- Generated by graphviz version 2.43.0 (0)
 -->
<!-- Title: fx_graph Pages: 1 -->
<svg width="1079pt" height="718pt"
 viewBox="0.00 0.00 1078.50 718.00" xmlns="http://www.w3.org/2000/svg" xmlns:xlink="http://www.w3.org/1999/xlink">
<g id="graph0" class="graph" transform="scale(1 1) rotate(0) translate(4 714)">
<title>fx_graph</title>
<polygon fill="white" stroke="transparent" points="-4,4 -4,-714 1074.5,-714 1074.5,4 -4,4"/>
<!-- primals_3 -->
<g id="node1" class="node">
<title>primals_3</title>
<path fill="AliceBlue" stroke="black" d="M12,-617.5C12,-617.5 157,-617.5 157,-617.5 163,-617.5 169,-623.5 169,-629.5 169,-629.5 169,-697.5 169,-697.5 169,-703.5 163,-709.5 157,-709.5 157,-709.5 12,-709.5 12,-709.5 6,-709.5 0,-703.5 0,-697.5 0,-697.5 0,-629.5 0,-629.5 0,-623.5 6,-617.5 12,-617.5"/>
<text text-anchor="middle" x="84.5" y="-694.3" font-family="Times,serif" font-size="14.00" fill="#000000">name=%primals_3</text>
<polyline fill="none" stroke="black" points="0,-686.5 169,-686.5 "/>
<text text-anchor="middle" x="84.5" y="-671.3" font-family="Times,serif" font-size="14.00" fill="#000000">op_code=placeholder</text>
<polyline fill="none" stroke="black" points="0,-663.5 169,-663.5 "/>
<text text-anchor="middle" x="84.5" y="-648.3" font-family="Times,serif" font-size="14.00" fill="#000000">target=primals_3</text>
<polyline fill="none" stroke="black" points="0,-640.5 169,-640.5 "/>
<text text-anchor="middle" x="84.5" y="-625.3" font-family="Times,serif" font-size="14.00" fill="#000000">num_users=1</text>
</g>
<!-- buf0 -->
<g id="node6" class="node">
<title>buf0</title>
<path fill="#fff68f" stroke="black" d="M17,-373.5C17,-373.5 338,-373.5 338,-373.5 344,-373.5 350,-379.5 350,-385.5 350,-385.5 350,-568.5 350,-568.5 350,-574.5 344,-580.5 338,-580.5 338,-580.5 17,-580.5 17,-580.5 11,-580.5 5,-574.5 5,-568.5 5,-568.5 5,-385.5 5,-385.5 5,-379.5 11,-373.5 17,-373.5"/>
<text text-anchor="middle" x="177.5" y="-565.3" font-family="Times,serif" font-size="14.00" fill="#000000">name=%buf0</text>
<polyline fill="none" stroke="black" points="5,-557.5 350,-557.5 "/>
<text text-anchor="middle" x="177.5" y="-542.3" font-family="Times,serif" font-size="14.00" fill="#000000">op_code=call_function</text>
<polyline fill="none" stroke="black" points="5,-534.5 350,-534.5 "/>
<text text-anchor="middle" x="177.5" y="-519.3" font-family="Times,serif" font-size="14.00" fill="#000000">target=torch._inductor.debug.template: fused</text>
<polyline fill="none" stroke="black" points="5,-511.5 350,-511.5 "/>
<text text-anchor="middle" x="177.5" y="-496.3" font-family="Times,serif" font-size="14.00" fill="#000000">kwargs={device: cuda:0,}</text>
<polyline fill="none" stroke="black" points="5,-488.5 350,-488.5 "/>
<text text-anchor="middle" x="177.5" y="-473.3" font-family="Times,serif" font-size="14.00" fill="#000000">num_users=1</text>
<polyline fill="none" stroke="black" points="5,-465.5 350,-465.5 "/>
<text text-anchor="middle" x="177.5" y="-450.3" font-family="Times,serif" font-size="14.00" fill="#000000">dtype=None</text>
<polyline fill="none" stroke="black" points="5,-442.5 350,-442.5 "/>
<text text-anchor="middle" x="177.5" y="-427.3" font-family="Times,serif" font-size="14.00" fill="#000000">shape=(&#39;t&#39;, &#39;e&#39;, &#39;m&#39;, &#39;p&#39;, &#39;l&#39;, &#39;a&#39;, &#39;t&#39;, &#39;e&#39;)</text>
<polyline fill="none" stroke="black" points="5,-419.5 350,-419.5 "/>
<text text-anchor="middle" x="177.5" y="-404.3" font-family="Times,serif" font-size="14.00" fill="#000000">requires_grad=None</text>
<polyline fill="none" stroke="black" points="5,-396.5 350,-396.5 "/>
<text text-anchor="middle" x="177.5" y="-381.3" font-family="Times,serif" font-size="14.00" fill="#000000">stride=None</text>
</g>
<!-- primals_3&#45;&gt;buf0 -->
<g id="edge1" class="edge">
<title>primals_3&#45;&gt;buf0</title>
<path fill="none" stroke="black" d="M107.25,-617.37C111.61,-608.71 116.36,-599.29 121.26,-589.58"/>
<polygon fill="black" stroke="black" points="124.41,-591.09 125.79,-580.59 118.16,-587.94 124.41,-591.09"/>
</g>
<!-- primals_1 -->
<g id="node2" class="node">
<title>primals_1</title>
<path fill="AliceBlue" stroke="black" d="M199,-617.5C199,-617.5 344,-617.5 344,-617.5 350,-617.5 356,-623.5 356,-629.5 356,-629.5 356,-697.5 356,-697.5 356,-703.5 350,-709.5 344,-709.5 344,-709.5 199,-709.5 199,-709.5 193,-709.5 187,-703.5 187,-697.5 187,-697.5 187,-629.5 187,-629.5 187,-623.5 193,-617.5 199,-617.5"/>
<text text-anchor="middle" x="271.5" y="-694.3" font-family="Times,serif" font-size="14.00" fill="#000000">name=%primals_1</text>
<polyline fill="none" stroke="black" points="187,-686.5 356,-686.5 "/>
<text text-anchor="middle" x="271.5" y="-671.3" font-family="Times,serif" font-size="14.00" fill="#000000">op_code=placeholder</text>
<polyline fill="none" stroke="black" points="187,-663.5 356,-663.5 "/>
<text text-anchor="middle" x="271.5" y="-648.3" font-family="Times,serif" font-size="14.00" fill="#000000">target=primals_1</text>
<polyline fill="none" stroke="black" points="187,-640.5 356,-640.5 "/>
<text text-anchor="middle" x="271.5" y="-625.3" font-family="Times,serif" font-size="14.00" fill="#000000">num_users=1</text>
</g>
<!-- primals_1&#45;&gt;buf0 -->
<g id="edge2" class="edge">
<title>primals_1&#45;&gt;buf0</title>
<path fill="none" stroke="black" d="M248.51,-617.37C244.09,-608.71 239.3,-599.29 234.35,-589.58"/>
<polygon fill="black" stroke="black" points="237.42,-587.91 229.77,-580.59 231.19,-591.09 237.42,-587.91"/>
</g>
<!-- primals_4 -->
<g id="node3" class="node">
<title>primals_4</title>
<path fill="AliceBlue" stroke="black" d="M380,-431C380,-431 525,-431 525,-431 531,-431 537,-437 537,-443 537,-443 537,-511 537,-511 537,-517 531,-523 525,-523 525,-523 380,-523 380,-523 374,-523 368,-517 368,-511 368,-511 368,-443 368,-443 368,-437 374,-431 380,-431"/>
<text text-anchor="middle" x="452.5" y="-507.8" font-family="Times,serif" font-size="14.00" fill="#000000">name=%primals_4</text>
<polyline fill="none" stroke="black" points="368,-500 537,-500 "/>
<text text-anchor="middle" x="452.5" y="-484.8" font-family="Times,serif" font-size="14.00" fill="#000000">op_code=placeholder</text>
<polyline fill="none" stroke="black" points="368,-477 537,-477 "/>
<text text-anchor="middle" x="452.5" y="-461.8" font-family="Times,serif" font-size="14.00" fill="#000000">target=primals_4</text>
<polyline fill="none" stroke="black" points="368,-454 537,-454 "/>
<text text-anchor="middle" x="452.5" y="-438.8" font-family="Times,serif" font-size="14.00" fill="#000000">num_users=1</text>
</g>
<!-- buf2_buf3_buf4 -->
<g id="node7" class="node">
<title>buf2_buf3_buf4</title>
<path fill="#ffe1ff" stroke="black" d="M324,-129.5C324,-129.5 767,-129.5 767,-129.5 773,-129.5 779,-135.5 779,-141.5 779,-141.5 779,-324.5 779,-324.5 779,-330.5 773,-336.5 767,-336.5 767,-336.5 324,-336.5 324,-336.5 318,-336.5 312,-330.5 312,-324.5 312,-324.5 312,-141.5 312,-141.5 312,-135.5 318,-129.5 324,-129.5"/>
<text text-anchor="middle" x="545.5" y="-321.3" font-family="Times,serif" font-size="14.00" fill="#000000">name=%buf2_buf3_buf4</text>
<polyline fill="none" stroke="black" points="312,-313.5 779,-313.5 "/>
<text text-anchor="middle" x="545.5" y="-298.3" font-family="Times,serif" font-size="14.00" fill="#000000">op_code=call_function</text>
<polyline fill="none" stroke="black" points="312,-290.5 779,-290.5 "/>
<text text-anchor="middle" x="545.5" y="-275.3" font-family="Times,serif" font-size="14.00" fill="#000000">target=torch._inductor.debug.fused: fused_add_native_dropout</text>
<polyline fill="none" stroke="black" points="312,-267.5 779,-267.5 "/>
<text text-anchor="middle" x="545.5" y="-252.3" font-family="Times,serif" font-size="14.00" fill="#000000">kwargs={device: cuda:0,}</text>
<polyline fill="none" stroke="black" points="312,-244.5 779,-244.5 "/>
<text text-anchor="middle" x="545.5" y="-229.3" font-family="Times,serif" font-size="14.00" fill="#000000">num_users=1</text>
<polyline fill="none" stroke="black" points="312,-221.5 779,-221.5 "/>
<text text-anchor="middle" x="545.5" y="-206.3" font-family="Times,serif" font-size="14.00" fill="#000000">dtype=None</text>
<polyline fill="none" stroke="black" points="312,-198.5 779,-198.5 "/>
<text text-anchor="middle" x="545.5" y="-183.3" font-family="Times,serif" font-size="14.00" fill="#000000">shape=(28672000, 1)</text>
<polyline fill="none" stroke="black" points="312,-175.5 779,-175.5 "/>
<text text-anchor="middle" x="545.5" y="-160.3" font-family="Times,serif" font-size="14.00" fill="#000000">requires_grad=None</text>
<polyline fill="none" stroke="black" points="312,-152.5 779,-152.5 "/>
<text text-anchor="middle" x="545.5" y="-137.3" font-family="Times,serif" font-size="14.00" fill="#000000">stride=None</text>
</g>
<!-- primals_4&#45;&gt;buf2_buf3_buf4 -->
<g id="edge3" class="edge">
<title>primals_4&#45;&gt;buf2_buf3_buf4</title>
<path fill="none" stroke="black" d="M469.88,-430.77C479.09,-406.82 490.84,-376.24 502.31,-346.37"/>
<polygon fill="black" stroke="black" points="505.71,-347.3 506.03,-336.71 499.17,-344.79 505.71,-347.3"/>
</g>
<!-- primals_2 -->
<g id="node4" class="node">
<title>primals_2</title>
<path fill="AliceBlue" stroke="black" d="M567,-431C567,-431 712,-431 712,-431 718,-431 724,-437 724,-443 724,-443 724,-511 724,-511 724,-517 718,-523 712,-523 712,-523 567,-523 567,-523 561,-523 555,-517 555,-511 555,-511 555,-443 555,-443 555,-437 561,-431 567,-431"/>
<text text-anchor="middle" x="639.5" y="-507.8" font-family="Times,serif" font-size="14.00" fill="#000000">name=%primals_2</text>
<polyline fill="none" stroke="black" points="555,-500 724,-500 "/>
<text text-anchor="middle" x="639.5" y="-484.8" font-family="Times,serif" font-size="14.00" fill="#000000">op_code=placeholder</text>
<polyline fill="none" stroke="black" points="555,-477 724,-477 "/>
<text text-anchor="middle" x="639.5" y="-461.8" font-family="Times,serif" font-size="14.00" fill="#000000">target=primals_2</text>
<polyline fill="none" stroke="black" points="555,-454 724,-454 "/>
<text text-anchor="middle" x="639.5" y="-438.8" font-family="Times,serif" font-size="14.00" fill="#000000">num_users=1</text>
</g>
<!-- primals_2&#45;&gt;buf2_buf3_buf4 -->
<g id="edge4" class="edge">
<title>primals_2&#45;&gt;buf2_buf3_buf4</title>
<path fill="none" stroke="black" d="M621.93,-430.77C612.63,-406.82 600.75,-376.24 589.15,-346.37"/>
<polygon fill="black" stroke="black" points="592.28,-344.76 585.4,-336.71 585.75,-347.3 592.28,-344.76"/>
</g>
<!-- buf1 -->
<g id="node5" class="node">
<title>buf1</title>
<path fill="#caff70" stroke="black" d="M754.5,-373.5C754.5,-373.5 1058.5,-373.5 1058.5,-373.5 1064.5,-373.5 1070.5,-379.5 1070.5,-385.5 1070.5,-385.5 1070.5,-568.5 1070.5,-568.5 1070.5,-574.5 1064.5,-580.5 1058.5,-580.5 1058.5,-580.5 754.5,-580.5 754.5,-580.5 748.5,-580.5 742.5,-574.5 742.5,-568.5 742.5,-568.5 742.5,-385.5 742.5,-385.5 742.5,-379.5 748.5,-373.5 754.5,-373.5"/>
<text text-anchor="middle" x="906.5" y="-565.3" font-family="Times,serif" font-size="14.00" fill="#000000">name=%buf1</text>
<polyline fill="none" stroke="black" points="742.5,-557.5 1070.5,-557.5 "/>
<text text-anchor="middle" x="906.5" y="-542.3" font-family="Times,serif" font-size="14.00" fill="#000000">op_code=call_function</text>
<polyline fill="none" stroke="black" points="742.5,-534.5 1070.5,-534.5 "/>
<text text-anchor="middle" x="906.5" y="-519.3" font-family="Times,serif" font-size="14.00" fill="#000000">target=torch._inductor.debug.extern: fused</text>
<polyline fill="none" stroke="black" points="742.5,-511.5 1070.5,-511.5 "/>
<text text-anchor="middle" x="906.5" y="-496.3" font-family="Times,serif" font-size="14.00" fill="#000000">kwargs={device: cuda:0,}</text>
<polyline fill="none" stroke="black" points="742.5,-488.5 1070.5,-488.5 "/>
<text text-anchor="middle" x="906.5" y="-473.3" font-family="Times,serif" font-size="14.00" fill="#000000">num_users=1</text>
<polyline fill="none" stroke="black" points="742.5,-465.5 1070.5,-465.5 "/>
<text text-anchor="middle" x="906.5" y="-450.3" font-family="Times,serif" font-size="14.00" fill="#000000">dtype=None</text>
<polyline fill="none" stroke="black" points="742.5,-442.5 1070.5,-442.5 "/>
<text text-anchor="middle" x="906.5" y="-427.3" font-family="Times,serif" font-size="14.00" fill="#000000">shape=(&#39;e&#39;, &#39;x&#39;, &#39;t&#39;, &#39;e&#39;, &#39;r&#39;, &#39;n&#39;)</text>
<polyline fill="none" stroke="black" points="742.5,-419.5 1070.5,-419.5 "/>
<text text-anchor="middle" x="906.5" y="-404.3" font-family="Times,serif" font-size="14.00" fill="#000000">requires_grad=None</text>
<polyline fill="none" stroke="black" points="742.5,-396.5 1070.5,-396.5 "/>
<text text-anchor="middle" x="906.5" y="-381.3" font-family="Times,serif" font-size="14.00" fill="#000000">stride=None</text>
</g>
<!-- buf1&#45;&gt;buf2_buf3_buf4 -->
<g id="edge5" class="edge">
<title>buf1&#45;&gt;buf2_buf3_buf4</title>
<path fill="none" stroke="black" d="M753.4,-373.37C738.08,-363.1 722.49,-352.65 707.08,-342.32"/>
<polygon fill="black" stroke="black" points="708.8,-339.26 698.55,-336.6 704.9,-345.07 708.8,-339.26"/>
</g>
<!-- buf0&#45;&gt;buf2_buf3_buf4 -->
<g id="edge6" class="edge">
<title>buf0&#45;&gt;buf2_buf3_buf4</title>
<path fill="none" stroke="black" d="M333.57,-373.37C349.18,-363.1 365.08,-352.65 380.78,-342.32"/>
<polygon fill="black" stroke="black" points="383.05,-345.01 389.49,-336.6 379.21,-339.17 383.05,-345.01"/>
</g>
<!-- output -->
<g id="node8" class="node">
<title>output</title>
<path fill="PowderBlue" stroke="black" d="M491,-0.5C491,-0.5 600,-0.5 600,-0.5 606,-0.5 612,-6.5 612,-12.5 612,-12.5 612,-80.5 612,-80.5 612,-86.5 606,-92.5 600,-92.5 600,-92.5 491,-92.5 491,-92.5 485,-92.5 479,-86.5 479,-80.5 479,-80.5 479,-12.5 479,-12.5 479,-6.5 485,-0.5 491,-0.5"/>
<text text-anchor="middle" x="545.5" y="-77.3" font-family="Times,serif" font-size="14.00" fill="#000000">name=%output</text>
<polyline fill="none" stroke="black" points="479,-69.5 612,-69.5 "/>
<text text-anchor="middle" x="545.5" y="-54.3" font-family="Times,serif" font-size="14.00" fill="#000000">op_code=output</text>
<polyline fill="none" stroke="black" points="479,-46.5 612,-46.5 "/>
<text text-anchor="middle" x="545.5" y="-31.3" font-family="Times,serif" font-size="14.00" fill="#000000">target=output</text>
<polyline fill="none" stroke="black" points="479,-23.5 612,-23.5 "/>
<text text-anchor="middle" x="545.5" y="-8.3" font-family="Times,serif" font-size="14.00" fill="#000000">num_users=0</text>
</g>
<!-- buf2_buf3_buf4&#45;&gt;output -->
<g id="edge7" class="edge">
<title>buf2_buf3_buf4&#45;&gt;output</title>
<path fill="none" stroke="black" d="M545.5,-129.5C545.5,-120.3 545.5,-111.24 545.5,-102.69"/>
<polygon fill="black" stroke="black" points="549,-102.53 545.5,-92.53 542,-102.53 549,-102.53"/>
</g>
</g>
</svg>
