<?xml version="1.0" encoding="UTF-8" standalone="no"?>
<!DOCTYPE svg PUBLIC "-//W3C//DTD SVG 1.1//EN"
 "http://www.w3.org/Graphics/SVG/1.1/DTD/svg11.dtd">
<!-- Generated by graphviz version 2.43.0 (0)
 -->
<!-- Title: fx_graph Pages: 1 -->
<svg width="954pt" height="962pt"
 viewBox="0.00 0.00 953.50 962.00" xmlns="http://www.w3.org/2000/svg" xmlns:xlink="http://www.w3.org/1999/xlink">
<g id="graph0" class="graph" transform="scale(1 1) rotate(0) translate(4 958)">
<title>fx_graph</title>
<polygon fill="white" stroke="transparent" points="-4,4 -4,-958 949.5,-958 949.5,4 -4,4"/>
<!-- primals_3 -->
<g id="node1" class="node">
<title>primals_3</title>
<path fill="AliceBlue" stroke="black" d="M213.5,-861.5C213.5,-861.5 358.5,-861.5 358.5,-861.5 364.5,-861.5 370.5,-867.5 370.5,-873.5 370.5,-873.5 370.5,-941.5 370.5,-941.5 370.5,-947.5 364.5,-953.5 358.5,-953.5 358.5,-953.5 213.5,-953.5 213.5,-953.5 207.5,-953.5 201.5,-947.5 201.5,-941.5 201.5,-941.5 201.5,-873.5 201.5,-873.5 201.5,-867.5 207.5,-861.5 213.5,-861.5"/>
<text text-anchor="middle" x="286" y="-938.3" font-family="Times,serif" font-size="14.00" fill="#000000">name=%primals_3</text>
<polyline fill="none" stroke="black" points="201.5,-930.5 370.5,-930.5 "/>
<text text-anchor="middle" x="286" y="-915.3" font-family="Times,serif" font-size="14.00" fill="#000000">op_code=placeholder</text>
<polyline fill="none" stroke="black" points="201.5,-907.5 370.5,-907.5 "/>
<text text-anchor="middle" x="286" y="-892.3" font-family="Times,serif" font-size="14.00" fill="#000000">target=primals_3</text>
<polyline fill="none" stroke="black" points="201.5,-884.5 370.5,-884.5 "/>
<text text-anchor="middle" x="286" y="-869.3" font-family="Times,serif" font-size="14.00" fill="#000000">num_users=1</text>
</g>
<!-- buf0 -->
<g id="node4" class="node">
<title>buf0</title>
<path fill="#aeeeee" stroke="black" d="M112.5,-617.5C112.5,-617.5 459.5,-617.5 459.5,-617.5 465.5,-617.5 471.5,-623.5 471.5,-629.5 471.5,-629.5 471.5,-812.5 471.5,-812.5 471.5,-818.5 465.5,-824.5 459.5,-824.5 459.5,-824.5 112.5,-824.5 112.5,-824.5 106.5,-824.5 100.5,-818.5 100.5,-812.5 100.5,-812.5 100.5,-629.5 100.5,-629.5 100.5,-623.5 106.5,-617.5 112.5,-617.5"/>
<text text-anchor="middle" x="286" y="-809.3" font-family="Times,serif" font-size="14.00" fill="#000000">name=%buf0</text>
<polyline fill="none" stroke="black" points="100.5,-801.5 471.5,-801.5 "/>
<text text-anchor="middle" x="286" y="-786.3" font-family="Times,serif" font-size="14.00" fill="#000000">op_code=call_function</text>
<polyline fill="none" stroke="black" points="100.5,-778.5 471.5,-778.5 "/>
<text text-anchor="middle" x="286" y="-763.3" font-family="Times,serif" font-size="14.00" fill="#000000">target=torch._inductor.debug.compute: fused_cat</text>
<polyline fill="none" stroke="black" points="100.5,-755.5 471.5,-755.5 "/>
<text text-anchor="middle" x="286" y="-740.3" font-family="Times,serif" font-size="14.00" fill="#000000">kwargs={device: cuda:0,}</text>
<polyline fill="none" stroke="black" points="100.5,-732.5 471.5,-732.5 "/>
<text text-anchor="middle" x="286" y="-717.3" font-family="Times,serif" font-size="14.00" fill="#000000">num_users=1</text>
<polyline fill="none" stroke="black" points="100.5,-709.5 471.5,-709.5 "/>
<text text-anchor="middle" x="286" y="-694.3" font-family="Times,serif" font-size="14.00" fill="#000000">dtype=None</text>
<polyline fill="none" stroke="black" points="100.5,-686.5 471.5,-686.5 "/>
<text text-anchor="middle" x="286" y="-671.3" font-family="Times,serif" font-size="14.00" fill="#000000">shape=(3200, 1)</text>
<polyline fill="none" stroke="black" points="100.5,-663.5 471.5,-663.5 "/>
<text text-anchor="middle" x="286" y="-648.3" font-family="Times,serif" font-size="14.00" fill="#000000">requires_grad=None</text>
<polyline fill="none" stroke="black" points="100.5,-640.5 471.5,-640.5 "/>
<text text-anchor="middle" x="286" y="-625.3" font-family="Times,serif" font-size="14.00" fill="#000000">stride=None</text>
</g>
<!-- primals_3&#45;&gt;buf0 -->
<g id="edge1" class="edge">
<title>primals_3&#45;&gt;buf0</title>
<path fill="none" stroke="black" d="M286,-861.37C286,-853.06 286,-844.06 286,-834.77"/>
<polygon fill="black" stroke="black" points="289.5,-834.59 286,-824.59 282.5,-834.59 289.5,-834.59"/>
</g>
<!-- primals_4 -->
<g id="node2" class="node">
<title>primals_4</title>
<path fill="AliceBlue" stroke="black" d="M601.5,-431C601.5,-431 746.5,-431 746.5,-431 752.5,-431 758.5,-437 758.5,-443 758.5,-443 758.5,-511 758.5,-511 758.5,-517 752.5,-523 746.5,-523 746.5,-523 601.5,-523 601.5,-523 595.5,-523 589.5,-517 589.5,-511 589.5,-511 589.5,-443 589.5,-443 589.5,-437 595.5,-431 601.5,-431"/>
<text text-anchor="middle" x="674" y="-507.8" font-family="Times,serif" font-size="14.00" fill="#000000">name=%primals_4</text>
<polyline fill="none" stroke="black" points="589.5,-500 758.5,-500 "/>
<text text-anchor="middle" x="674" y="-484.8" font-family="Times,serif" font-size="14.00" fill="#000000">op_code=placeholder</text>
<polyline fill="none" stroke="black" points="589.5,-477 758.5,-477 "/>
<text text-anchor="middle" x="674" y="-461.8" font-family="Times,serif" font-size="14.00" fill="#000000">target=primals_4</text>
<polyline fill="none" stroke="black" points="589.5,-454 758.5,-454 "/>
<text text-anchor="middle" x="674" y="-438.8" font-family="Times,serif" font-size="14.00" fill="#000000">num_users=1</text>
</g>
<!-- buf4 -->
<g id="node5" class="node">
<title>buf4</title>
<path fill="#98f5ff" stroke="black" d="M526.5,-129.5C526.5,-129.5 879.5,-129.5 879.5,-129.5 885.5,-129.5 891.5,-135.5 891.5,-141.5 891.5,-141.5 891.5,-324.5 891.5,-324.5 891.5,-330.5 885.5,-336.5 879.5,-336.5 879.5,-336.5 526.5,-336.5 526.5,-336.5 520.5,-336.5 514.5,-330.5 514.5,-324.5 514.5,-324.5 514.5,-141.5 514.5,-141.5 514.5,-135.5 520.5,-129.5 526.5,-129.5"/>
<text text-anchor="middle" x="703" y="-321.3" font-family="Times,serif" font-size="14.00" fill="#000000">name=%buf4</text>
<polyline fill="none" stroke="black" points="514.5,-313.5 891.5,-313.5 "/>
<text text-anchor="middle" x="703" y="-298.3" font-family="Times,serif" font-size="14.00" fill="#000000">op_code=call_function</text>
<polyline fill="none" stroke="black" points="514.5,-290.5 891.5,-290.5 "/>
<text text-anchor="middle" x="703" y="-275.3" font-family="Times,serif" font-size="14.00" fill="#000000">target=torch._inductor.debug.compute: fused_mul</text>
<polyline fill="none" stroke="black" points="514.5,-267.5 891.5,-267.5 "/>
<text text-anchor="middle" x="703" y="-252.3" font-family="Times,serif" font-size="14.00" fill="#000000">kwargs={device: cuda:0,}</text>
<polyline fill="none" stroke="black" points="514.5,-244.5 891.5,-244.5 "/>
<text text-anchor="middle" x="703" y="-229.3" font-family="Times,serif" font-size="14.00" fill="#000000">num_users=1</text>
<polyline fill="none" stroke="black" points="514.5,-221.5 891.5,-221.5 "/>
<text text-anchor="middle" x="703" y="-206.3" font-family="Times,serif" font-size="14.00" fill="#000000">dtype=None</text>
<polyline fill="none" stroke="black" points="514.5,-198.5 891.5,-198.5 "/>
<text text-anchor="middle" x="703" y="-183.3" font-family="Times,serif" font-size="14.00" fill="#000000">shape=(3200, 1)</text>
<polyline fill="none" stroke="black" points="514.5,-175.5 891.5,-175.5 "/>
<text text-anchor="middle" x="703" y="-160.3" font-family="Times,serif" font-size="14.00" fill="#000000">requires_grad=None</text>
<polyline fill="none" stroke="black" points="514.5,-152.5 891.5,-152.5 "/>
<text text-anchor="middle" x="703" y="-137.3" font-family="Times,serif" font-size="14.00" fill="#000000">stride=None</text>
</g>
<!-- primals_4&#45;&gt;buf4 -->
<g id="edge2" class="edge">
<title>primals_4&#45;&gt;buf4</title>
<path fill="none" stroke="black" d="M679.42,-430.77C682.28,-406.92 685.92,-376.51 689.49,-346.76"/>
<polygon fill="black" stroke="black" points="692.98,-347.06 690.69,-336.71 686.03,-346.22 692.98,-347.06"/>
</g>
<!-- primals_1 -->
<g id="node3" class="node">
<title>primals_1</title>
<path fill="AliceBlue" stroke="black" d="M788.5,-431C788.5,-431 933.5,-431 933.5,-431 939.5,-431 945.5,-437 945.5,-443 945.5,-443 945.5,-511 945.5,-511 945.5,-517 939.5,-523 933.5,-523 933.5,-523 788.5,-523 788.5,-523 782.5,-523 776.5,-517 776.5,-511 776.5,-511 776.5,-443 776.5,-443 776.5,-437 782.5,-431 788.5,-431"/>
<text text-anchor="middle" x="861" y="-507.8" font-family="Times,serif" font-size="14.00" fill="#000000">name=%primals_1</text>
<polyline fill="none" stroke="black" points="776.5,-500 945.5,-500 "/>
<text text-anchor="middle" x="861" y="-484.8" font-family="Times,serif" font-size="14.00" fill="#000000">op_code=placeholder</text>
<polyline fill="none" stroke="black" points="776.5,-477 945.5,-477 "/>
<text text-anchor="middle" x="861" y="-461.8" font-family="Times,serif" font-size="14.00" fill="#000000">target=primals_1</text>
<polyline fill="none" stroke="black" points="776.5,-454 945.5,-454 "/>
<text text-anchor="middle" x="861" y="-438.8" font-family="Times,serif" font-size="14.00" fill="#000000">num_users=1</text>
</g>
<!-- primals_1&#45;&gt;buf4 -->
<g id="edge3" class="edge">
<title>primals_1&#45;&gt;buf4</title>
<path fill="none" stroke="black" d="M831.47,-430.77C815.63,-406.51 795.35,-375.45 775.61,-345.21"/>
<polygon fill="black" stroke="black" points="778.46,-343.17 770.06,-336.71 772.6,-347 778.46,-343.17"/>
</g>
<!-- buf1 -->
<g id="node6" class="node">
<title>buf1</title>
<path fill="#fff0f5" stroke="black" d="M41,-373.5C41,-373.5 531,-373.5 531,-373.5 537,-373.5 543,-379.5 543,-385.5 543,-385.5 543,-568.5 543,-568.5 543,-574.5 537,-580.5 531,-580.5 531,-580.5 41,-580.5 41,-580.5 35,-580.5 29,-574.5 29,-568.5 29,-568.5 29,-385.5 29,-385.5 29,-379.5 35,-373.5 41,-373.5"/>
<text text-anchor="middle" x="286" y="-565.3" font-family="Times,serif" font-size="14.00" fill="#000000">name=%buf1</text>
<polyline fill="none" stroke="black" points="29,-557.5 543,-557.5 "/>
<text text-anchor="middle" x="286" y="-542.3" font-family="Times,serif" font-size="14.00" fill="#000000">op_code=call_function</text>
<polyline fill="none" stroke="black" points="29,-534.5 543,-534.5 "/>
<text text-anchor="middle" x="286" y="-519.3" font-family="Times,serif" font-size="14.00" fill="#000000">target=torch._inductor.debug.compute: fused_copy_div_lift_fresh_sub</text>
<polyline fill="none" stroke="black" points="29,-511.5 543,-511.5 "/>
<text text-anchor="middle" x="286" y="-496.3" font-family="Times,serif" font-size="14.00" fill="#000000">kwargs={device: cuda:0,}</text>
<polyline fill="none" stroke="black" points="29,-488.5 543,-488.5 "/>
<text text-anchor="middle" x="286" y="-473.3" font-family="Times,serif" font-size="14.00" fill="#000000">num_users=2</text>
<polyline fill="none" stroke="black" points="29,-465.5 543,-465.5 "/>
<text text-anchor="middle" x="286" y="-450.3" font-family="Times,serif" font-size="14.00" fill="#000000">dtype=None</text>
<polyline fill="none" stroke="black" points="29,-442.5 543,-442.5 "/>
<text text-anchor="middle" x="286" y="-427.3" font-family="Times,serif" font-size="14.00" fill="#000000">shape=(3200, 1)</text>
<polyline fill="none" stroke="black" points="29,-419.5 543,-419.5 "/>
<text text-anchor="middle" x="286" y="-404.3" font-family="Times,serif" font-size="14.00" fill="#000000">requires_grad=None</text>
<polyline fill="none" stroke="black" points="29,-396.5 543,-396.5 "/>
<text text-anchor="middle" x="286" y="-381.3" font-family="Times,serif" font-size="14.00" fill="#000000">stride=None</text>
</g>
<!-- buf0&#45;&gt;buf1 -->
<g id="edge4" class="edge">
<title>buf0&#45;&gt;buf1</title>
<path fill="none" stroke="black" d="M286,-617.37C286,-608.67 286,-599.83 286,-591.06"/>
<polygon fill="black" stroke="black" points="289.5,-590.79 286,-580.79 282.5,-590.79 289.5,-590.79"/>
</g>
<!-- output -->
<g id="node8" class="node">
<title>output</title>
<path fill="PowderBlue" stroke="black" d="M431.5,-0.5C431.5,-0.5 540.5,-0.5 540.5,-0.5 546.5,-0.5 552.5,-6.5 552.5,-12.5 552.5,-12.5 552.5,-80.5 552.5,-80.5 552.5,-86.5 546.5,-92.5 540.5,-92.5 540.5,-92.5 431.5,-92.5 431.5,-92.5 425.5,-92.5 419.5,-86.5 419.5,-80.5 419.5,-80.5 419.5,-12.5 419.5,-12.5 419.5,-6.5 425.5,-0.5 431.5,-0.5"/>
<text text-anchor="middle" x="486" y="-77.3" font-family="Times,serif" font-size="14.00" fill="#000000">name=%output</text>
<polyline fill="none" stroke="black" points="419.5,-69.5 552.5,-69.5 "/>
<text text-anchor="middle" x="486" y="-54.3" font-family="Times,serif" font-size="14.00" fill="#000000">op_code=output</text>
<polyline fill="none" stroke="black" points="419.5,-46.5 552.5,-46.5 "/>
<text text-anchor="middle" x="486" y="-31.3" font-family="Times,serif" font-size="14.00" fill="#000000">target=output</text>
<polyline fill="none" stroke="black" points="419.5,-23.5 552.5,-23.5 "/>
<text text-anchor="middle" x="486" y="-8.3" font-family="Times,serif" font-size="14.00" fill="#000000">num_users=0</text>
</g>
<!-- buf4&#45;&gt;output -->
<g id="edge5" class="edge">
<title>buf4&#45;&gt;output</title>
<path fill="none" stroke="black" d="M582.44,-129.5C570.08,-118.99 557.92,-108.65 546.64,-99.05"/>
<polygon fill="black" stroke="black" points="548.85,-96.35 538.97,-92.53 544.32,-101.68 548.85,-96.35"/>
</g>
<!-- buf2_buf3 -->
<g id="node7" class="node">
<title>buf2_buf3</title>
<path fill="LightSkyBlue" stroke="black" d="M12,-129.5C12,-129.5 446,-129.5 446,-129.5 452,-129.5 458,-135.5 458,-141.5 458,-141.5 458,-324.5 458,-324.5 458,-330.5 452,-336.5 446,-336.5 446,-336.5 12,-336.5 12,-336.5 6,-336.5 0,-330.5 0,-324.5 0,-324.5 0,-141.5 0,-141.5 0,-135.5 6,-129.5 12,-129.5"/>
<text text-anchor="middle" x="229" y="-321.3" font-family="Times,serif" font-size="14.00" fill="#000000">name=%buf2_buf3</text>
<polyline fill="none" stroke="black" points="0,-313.5 458,-313.5 "/>
<text text-anchor="middle" x="229" y="-298.3" font-family="Times,serif" font-size="14.00" fill="#000000">op_code=call_function</text>
<polyline fill="none" stroke="black" points="0,-290.5 458,-290.5 "/>
<text text-anchor="middle" x="229" y="-275.3" font-family="Times,serif" font-size="14.00" fill="#000000">target=torch._inductor.debug.fused: fused_abs_all_eq_mul_ne</text>
<polyline fill="none" stroke="black" points="0,-267.5 458,-267.5 "/>
<text text-anchor="middle" x="229" y="-252.3" font-family="Times,serif" font-size="14.00" fill="#000000">kwargs={device: cuda:0,}</text>
<polyline fill="none" stroke="black" points="0,-244.5 458,-244.5 "/>
<text text-anchor="middle" x="229" y="-229.3" font-family="Times,serif" font-size="14.00" fill="#000000">num_users=1</text>
<polyline fill="none" stroke="black" points="0,-221.5 458,-221.5 "/>
<text text-anchor="middle" x="229" y="-206.3" font-family="Times,serif" font-size="14.00" fill="#000000">dtype=None</text>
<polyline fill="none" stroke="black" points="0,-198.5 458,-198.5 "/>
<text text-anchor="middle" x="229" y="-183.3" font-family="Times,serif" font-size="14.00" fill="#000000">shape=(800, 1)</text>
<polyline fill="none" stroke="black" points="0,-175.5 458,-175.5 "/>
<text text-anchor="middle" x="229" y="-160.3" font-family="Times,serif" font-size="14.00" fill="#000000">requires_grad=None</text>
<polyline fill="none" stroke="black" points="0,-152.5 458,-152.5 "/>
<text text-anchor="middle" x="229" y="-137.3" font-family="Times,serif" font-size="14.00" fill="#000000">stride=None</text>
</g>
<!-- buf1&#45;&gt;buf2_buf3 -->
<g id="edge6" class="edge">
<title>buf1&#45;&gt;buf2_buf3</title>
<path fill="none" stroke="black" d="M261.83,-373.37C259.75,-364.57 257.65,-355.64 255.56,-346.77"/>
<polygon fill="black" stroke="black" points="258.91,-345.72 253.21,-336.79 252.1,-347.32 258.91,-345.72"/>
</g>
<!-- buf1&#45;&gt;output -->
<g id="edge7" class="edge">
<title>buf1&#45;&gt;output</title>
<path fill="none" stroke="black" d="M441.58,-373.26C451.4,-362.03 460.09,-349.93 467,-337 506.32,-263.4 502.71,-163.82 495.26,-102.71"/>
<polygon fill="black" stroke="black" points="498.69,-101.97 493.94,-92.5 491.75,-102.87 498.69,-101.97"/>
</g>
<!-- buf2_buf3&#45;&gt;output -->
<g id="edge8" class="edge">
<title>buf2_buf3&#45;&gt;output</title>
<path fill="none" stroke="black" d="M371.78,-129.5C386.71,-118.78 401.37,-108.26 414.96,-98.5"/>
<polygon fill="black" stroke="black" points="417.19,-101.21 423.27,-92.53 413.1,-95.52 417.19,-101.21"/>
</g>
</g>
</svg>
