<?xml version="1.0" encoding="UTF-8" standalone="no"?>
<!DOCTYPE svg PUBLIC "-//W3C//DTD SVG 1.1//EN"
 "http://www.w3.org/Graphics/SVG/1.1/DTD/svg11.dtd">
<!-- Generated by graphviz version 2.43.0 (0)
 -->
<!-- Title: fx_graph Pages: 1 -->
<svg width="1655pt" height="2182pt"
 viewBox="0.00 0.00 1654.50 2182.00" xmlns="http://www.w3.org/2000/svg" xmlns:xlink="http://www.w3.org/1999/xlink">
<g id="graph0" class="graph" transform="scale(1 1) rotate(0) translate(4 2178)">
<title>fx_graph</title>
<polygon fill="white" stroke="transparent" points="-4,4 -4,-2178 1650.5,-2178 1650.5,4 -4,4"/>
<!-- primals_8 -->
<g id="node1" class="node">
<title>primals_8</title>
<path fill="AliceBlue" stroke="black" d="M213.5,-2081.5C213.5,-2081.5 358.5,-2081.5 358.5,-2081.5 364.5,-2081.5 370.5,-2087.5 370.5,-2093.5 370.5,-2093.5 370.5,-2161.5 370.5,-2161.5 370.5,-2167.5 364.5,-2173.5 358.5,-2173.5 358.5,-2173.5 213.5,-2173.5 213.5,-2173.5 207.5,-2173.5 201.5,-2167.5 201.5,-2161.5 201.5,-2161.5 201.5,-2093.5 201.5,-2093.5 201.5,-2087.5 207.5,-2081.5 213.5,-2081.5"/>
<text text-anchor="middle" x="286" y="-2158.3" font-family="Times,serif" font-size="14.00" fill="#000000">name=%primals_8</text>
<polyline fill="none" stroke="black" points="201.5,-2150.5 370.5,-2150.5 "/>
<text text-anchor="middle" x="286" y="-2135.3" font-family="Times,serif" font-size="14.00" fill="#000000">op_code=placeholder</text>
<polyline fill="none" stroke="black" points="201.5,-2127.5 370.5,-2127.5 "/>
<text text-anchor="middle" x="286" y="-2112.3" font-family="Times,serif" font-size="14.00" fill="#000000">target=primals_8</text>
<polyline fill="none" stroke="black" points="201.5,-2104.5 370.5,-2104.5 "/>
<text text-anchor="middle" x="286" y="-2089.3" font-family="Times,serif" font-size="14.00" fill="#000000">num_users=1</text>
</g>
<!-- buf0 -->
<g id="node7" class="node">
<title>buf0</title>
<path fill="#ffe7ba" stroke="black" d="M110,-1837.5C110,-1837.5 462,-1837.5 462,-1837.5 468,-1837.5 474,-1843.5 474,-1849.5 474,-1849.5 474,-2032.5 474,-2032.5 474,-2038.5 468,-2044.5 462,-2044.5 462,-2044.5 110,-2044.5 110,-2044.5 104,-2044.5 98,-2038.5 98,-2032.5 98,-2032.5 98,-1849.5 98,-1849.5 98,-1843.5 104,-1837.5 110,-1837.5"/>
<text text-anchor="middle" x="286" y="-2029.3" font-family="Times,serif" font-size="14.00" fill="#000000">name=%buf0</text>
<polyline fill="none" stroke="black" points="98,-2021.5 474,-2021.5 "/>
<text text-anchor="middle" x="286" y="-2006.3" font-family="Times,serif" font-size="14.00" fill="#000000">op_code=call_function</text>
<polyline fill="none" stroke="black" points="98,-1998.5 474,-1998.5 "/>
<text text-anchor="middle" x="286" y="-1983.3" font-family="Times,serif" font-size="14.00" fill="#000000">target=torch._inductor.debug.compute: fused_add</text>
<polyline fill="none" stroke="black" points="98,-1975.5 474,-1975.5 "/>
<text text-anchor="middle" x="286" y="-1960.3" font-family="Times,serif" font-size="14.00" fill="#000000">kwargs={device: cuda:0,}</text>
<polyline fill="none" stroke="black" points="98,-1952.5 474,-1952.5 "/>
<text text-anchor="middle" x="286" y="-1937.3" font-family="Times,serif" font-size="14.00" fill="#000000">num_users=3</text>
<polyline fill="none" stroke="black" points="98,-1929.5 474,-1929.5 "/>
<text text-anchor="middle" x="286" y="-1914.3" font-family="Times,serif" font-size="14.00" fill="#000000">dtype=None</text>
<polyline fill="none" stroke="black" points="98,-1906.5 474,-1906.5 "/>
<text text-anchor="middle" x="286" y="-1891.3" font-family="Times,serif" font-size="14.00" fill="#000000">shape=(256*s4*s5, 1)</text>
<polyline fill="none" stroke="black" points="98,-1883.5 474,-1883.5 "/>
<text text-anchor="middle" x="286" y="-1868.3" font-family="Times,serif" font-size="14.00" fill="#000000">requires_grad=None</text>
<polyline fill="none" stroke="black" points="98,-1860.5 474,-1860.5 "/>
<text text-anchor="middle" x="286" y="-1845.3" font-family="Times,serif" font-size="14.00" fill="#000000">stride=None</text>
</g>
<!-- primals_8&#45;&gt;buf0 -->
<g id="edge1" class="edge">
<title>primals_8&#45;&gt;buf0</title>
<path fill="none" stroke="black" d="M286,-2081.37C286,-2073.06 286,-2064.06 286,-2054.77"/>
<polygon fill="black" stroke="black" points="289.5,-2054.59 286,-2044.59 282.5,-2054.59 289.5,-2054.59"/>
</g>
<!-- primals_7 -->
<g id="node2" class="node">
<title>primals_7</title>
<path fill="AliceBlue" stroke="black" d="M968.5,-2081.5C968.5,-2081.5 1113.5,-2081.5 1113.5,-2081.5 1119.5,-2081.5 1125.5,-2087.5 1125.5,-2093.5 1125.5,-2093.5 1125.5,-2161.5 1125.5,-2161.5 1125.5,-2167.5 1119.5,-2173.5 1113.5,-2173.5 1113.5,-2173.5 968.5,-2173.5 968.5,-2173.5 962.5,-2173.5 956.5,-2167.5 956.5,-2161.5 956.5,-2161.5 956.5,-2093.5 956.5,-2093.5 956.5,-2087.5 962.5,-2081.5 968.5,-2081.5"/>
<text text-anchor="middle" x="1041" y="-2158.3" font-family="Times,serif" font-size="14.00" fill="#000000">name=%primals_7</text>
<polyline fill="none" stroke="black" points="956.5,-2150.5 1125.5,-2150.5 "/>
<text text-anchor="middle" x="1041" y="-2135.3" font-family="Times,serif" font-size="14.00" fill="#000000">op_code=placeholder</text>
<polyline fill="none" stroke="black" points="956.5,-2127.5 1125.5,-2127.5 "/>
<text text-anchor="middle" x="1041" y="-2112.3" font-family="Times,serif" font-size="14.00" fill="#000000">target=primals_7</text>
<polyline fill="none" stroke="black" points="956.5,-2104.5 1125.5,-2104.5 "/>
<text text-anchor="middle" x="1041" y="-2089.3" font-family="Times,serif" font-size="14.00" fill="#000000">num_users=3</text>
</g>
<!-- primals_7&#45;&gt;buf0 -->
<g id="edge2" class="edge">
<title>primals_7&#45;&gt;buf0</title>
<path fill="none" stroke="black" d="M956.34,-2118.79C855.15,-2108.22 681.39,-2085.72 537,-2045 519.6,-2040.09 501.77,-2034.34 484.03,-2028.11"/>
<polygon fill="black" stroke="black" points="484.79,-2024.66 474.19,-2024.6 482.43,-2031.25 484.79,-2024.66"/>
</g>
<!-- buf3 -->
<g id="node8" class="node">
<title>buf3</title>
<path fill="#fff68f" stroke="black" d="M859,-1349.5C859,-1349.5 1223,-1349.5 1223,-1349.5 1229,-1349.5 1235,-1355.5 1235,-1361.5 1235,-1361.5 1235,-1544.5 1235,-1544.5 1235,-1550.5 1229,-1556.5 1223,-1556.5 1223,-1556.5 859,-1556.5 859,-1556.5 853,-1556.5 847,-1550.5 847,-1544.5 847,-1544.5 847,-1361.5 847,-1361.5 847,-1355.5 853,-1349.5 859,-1349.5"/>
<text text-anchor="middle" x="1041" y="-1541.3" font-family="Times,serif" font-size="14.00" fill="#000000">name=%buf3</text>
<polyline fill="none" stroke="black" points="847,-1533.5 1235,-1533.5 "/>
<text text-anchor="middle" x="1041" y="-1518.3" font-family="Times,serif" font-size="14.00" fill="#000000">op_code=call_function</text>
<polyline fill="none" stroke="black" points="847,-1510.5 1235,-1510.5 "/>
<text text-anchor="middle" x="1041" y="-1495.3" font-family="Times,serif" font-size="14.00" fill="#000000">target=torch._inductor.debug.extern: fused_addmm</text>
<polyline fill="none" stroke="black" points="847,-1487.5 1235,-1487.5 "/>
<text text-anchor="middle" x="1041" y="-1472.3" font-family="Times,serif" font-size="14.00" fill="#000000">kwargs={device: cuda:0,}</text>
<polyline fill="none" stroke="black" points="847,-1464.5 1235,-1464.5 "/>
<text text-anchor="middle" x="1041" y="-1449.3" font-family="Times,serif" font-size="14.00" fill="#000000">num_users=2</text>
<polyline fill="none" stroke="black" points="847,-1441.5 1235,-1441.5 "/>
<text text-anchor="middle" x="1041" y="-1426.3" font-family="Times,serif" font-size="14.00" fill="#000000">dtype=None</text>
<polyline fill="none" stroke="black" points="847,-1418.5 1235,-1418.5 "/>
<text text-anchor="middle" x="1041" y="-1403.3" font-family="Times,serif" font-size="14.00" fill="#000000">shape=(&#39;e&#39;, &#39;x&#39;, &#39;t&#39;, &#39;e&#39;, &#39;r&#39;, &#39;n&#39;)</text>
<polyline fill="none" stroke="black" points="847,-1395.5 1235,-1395.5 "/>
<text text-anchor="middle" x="1041" y="-1380.3" font-family="Times,serif" font-size="14.00" fill="#000000">requires_grad=None</text>
<polyline fill="none" stroke="black" points="847,-1372.5 1235,-1372.5 "/>
<text text-anchor="middle" x="1041" y="-1357.3" font-family="Times,serif" font-size="14.00" fill="#000000">stride=None</text>
</g>
<!-- primals_7&#45;&gt;buf3 -->
<g id="edge3" class="edge">
<title>primals_7&#45;&gt;buf3</title>
<path fill="none" stroke="black" d="M1041,-2081.33C1041,-1977.12 1041,-1717.29 1041,-1566.73"/>
<polygon fill="black" stroke="black" points="1044.5,-1566.53 1041,-1556.53 1037.5,-1566.53 1044.5,-1566.53"/>
</g>
<!-- buf11_buf12 -->
<g id="node16" class="node">
<title>buf11_buf12</title>
<path fill="#fff68f" stroke="black" d="M1143,-129.5C1143,-129.5 1497,-129.5 1497,-129.5 1503,-129.5 1509,-135.5 1509,-141.5 1509,-141.5 1509,-324.5 1509,-324.5 1509,-330.5 1503,-336.5 1497,-336.5 1497,-336.5 1143,-336.5 1143,-336.5 1137,-336.5 1131,-330.5 1131,-324.5 1131,-324.5 1131,-141.5 1131,-141.5 1131,-135.5 1137,-129.5 1143,-129.5"/>
<text text-anchor="middle" x="1320" y="-321.3" font-family="Times,serif" font-size="14.00" fill="#000000">name=%buf11_buf12</text>
<polyline fill="none" stroke="black" points="1131,-313.5 1509,-313.5 "/>
<text text-anchor="middle" x="1320" y="-298.3" font-family="Times,serif" font-size="14.00" fill="#000000">op_code=call_function</text>
<polyline fill="none" stroke="black" points="1131,-290.5 1509,-290.5 "/>
<text text-anchor="middle" x="1320" y="-275.3" font-family="Times,serif" font-size="14.00" fill="#000000">target=torch._inductor.debug.template: fused_add</text>
<polyline fill="none" stroke="black" points="1131,-267.5 1509,-267.5 "/>
<text text-anchor="middle" x="1320" y="-252.3" font-family="Times,serif" font-size="14.00" fill="#000000">kwargs={device: cuda:0,}</text>
<polyline fill="none" stroke="black" points="1131,-244.5 1509,-244.5 "/>
<text text-anchor="middle" x="1320" y="-229.3" font-family="Times,serif" font-size="14.00" fill="#000000">num_users=1</text>
<polyline fill="none" stroke="black" points="1131,-221.5 1509,-221.5 "/>
<text text-anchor="middle" x="1320" y="-206.3" font-family="Times,serif" font-size="14.00" fill="#000000">dtype=None</text>
<polyline fill="none" stroke="black" points="1131,-198.5 1509,-198.5 "/>
<text text-anchor="middle" x="1320" y="-183.3" font-family="Times,serif" font-size="14.00" fill="#000000">shape=(&#39;t&#39;, &#39;e&#39;, &#39;m&#39;, &#39;p&#39;, &#39;l&#39;, &#39;a&#39;, &#39;t&#39;, &#39;e&#39;)</text>
<polyline fill="none" stroke="black" points="1131,-175.5 1509,-175.5 "/>
<text text-anchor="middle" x="1320" y="-160.3" font-family="Times,serif" font-size="14.00" fill="#000000">requires_grad=None</text>
<polyline fill="none" stroke="black" points="1131,-152.5 1509,-152.5 "/>
<text text-anchor="middle" x="1320" y="-137.3" font-family="Times,serif" font-size="14.00" fill="#000000">stride=None</text>
</g>
<!-- primals_7&#45;&gt;buf11_buf12 -->
<g id="edge4" class="edge">
<title>primals_7&#45;&gt;buf11_buf12</title>
<path fill="none" stroke="black" d="M1083.02,-2081.37C1147.38,-2007.33 1263,-1852.79 1263,-1698 1263,-1698 1263,-1698 1263,-720 1263,-565.55 1257.27,-525.46 1282,-373 1283.4,-364.39 1285.12,-355.54 1287.05,-346.69"/>
<polygon fill="black" stroke="black" points="1290.52,-347.22 1289.31,-336.7 1283.69,-345.68 1290.52,-347.22"/>
</g>
<!-- primals_1 -->
<g id="node3" class="node">
<title>primals_1</title>
<path fill="AliceBlue" stroke="black" d="M558.5,-1895C558.5,-1895 703.5,-1895 703.5,-1895 709.5,-1895 715.5,-1901 715.5,-1907 715.5,-1907 715.5,-1975 715.5,-1975 715.5,-1981 709.5,-1987 703.5,-1987 703.5,-1987 558.5,-1987 558.5,-1987 552.5,-1987 546.5,-1981 546.5,-1975 546.5,-1975 546.5,-1907 546.5,-1907 546.5,-1901 552.5,-1895 558.5,-1895"/>
<text text-anchor="middle" x="631" y="-1971.8" font-family="Times,serif" font-size="14.00" fill="#000000">name=%primals_1</text>
<polyline fill="none" stroke="black" points="546.5,-1964 715.5,-1964 "/>
<text text-anchor="middle" x="631" y="-1948.8" font-family="Times,serif" font-size="14.00" fill="#000000">op_code=placeholder</text>
<polyline fill="none" stroke="black" points="546.5,-1941 715.5,-1941 "/>
<text text-anchor="middle" x="631" y="-1925.8" font-family="Times,serif" font-size="14.00" fill="#000000">target=primals_1</text>
<polyline fill="none" stroke="black" points="546.5,-1918 715.5,-1918 "/>
<text text-anchor="middle" x="631" y="-1902.8" font-family="Times,serif" font-size="14.00" fill="#000000">num_users=3</text>
</g>
<!-- primals_1&#45;&gt;buf3 -->
<g id="edge5" class="edge">
<title>primals_1&#45;&gt;buf3</title>
<path fill="none" stroke="black" d="M714.69,-1894.92C754.59,-1870.67 801.11,-1838.13 836,-1801 901.02,-1731.81 954.71,-1638.47 990.81,-1566.03"/>
<polygon fill="black" stroke="black" points="994.05,-1567.37 995.34,-1556.85 987.78,-1564.27 994.05,-1567.37"/>
</g>
<!-- buf1 -->
<g id="node9" class="node">
<title>buf1</title>
<path fill="#fff68f" stroke="black" d="M270.5,-1593.5C270.5,-1593.5 591.5,-1593.5 591.5,-1593.5 597.5,-1593.5 603.5,-1599.5 603.5,-1605.5 603.5,-1605.5 603.5,-1788.5 603.5,-1788.5 603.5,-1794.5 597.5,-1800.5 591.5,-1800.5 591.5,-1800.5 270.5,-1800.5 270.5,-1800.5 264.5,-1800.5 258.5,-1794.5 258.5,-1788.5 258.5,-1788.5 258.5,-1605.5 258.5,-1605.5 258.5,-1599.5 264.5,-1593.5 270.5,-1593.5"/>
<text text-anchor="middle" x="431" y="-1785.3" font-family="Times,serif" font-size="14.00" fill="#000000">name=%buf1</text>
<polyline fill="none" stroke="black" points="258.5,-1777.5 603.5,-1777.5 "/>
<text text-anchor="middle" x="431" y="-1762.3" font-family="Times,serif" font-size="14.00" fill="#000000">op_code=call_function</text>
<polyline fill="none" stroke="black" points="258.5,-1754.5 603.5,-1754.5 "/>
<text text-anchor="middle" x="431" y="-1739.3" font-family="Times,serif" font-size="14.00" fill="#000000">target=torch._inductor.debug.template: fused</text>
<polyline fill="none" stroke="black" points="258.5,-1731.5 603.5,-1731.5 "/>
<text text-anchor="middle" x="431" y="-1716.3" font-family="Times,serif" font-size="14.00" fill="#000000">kwargs={device: cuda:0,}</text>
<polyline fill="none" stroke="black" points="258.5,-1708.5 603.5,-1708.5 "/>
<text text-anchor="middle" x="431" y="-1693.3" font-family="Times,serif" font-size="14.00" fill="#000000">num_users=1</text>
<polyline fill="none" stroke="black" points="258.5,-1685.5 603.5,-1685.5 "/>
<text text-anchor="middle" x="431" y="-1670.3" font-family="Times,serif" font-size="14.00" fill="#000000">dtype=None</text>
<polyline fill="none" stroke="black" points="258.5,-1662.5 603.5,-1662.5 "/>
<text text-anchor="middle" x="431" y="-1647.3" font-family="Times,serif" font-size="14.00" fill="#000000">shape=(&#39;t&#39;, &#39;e&#39;, &#39;m&#39;, &#39;p&#39;, &#39;l&#39;, &#39;a&#39;, &#39;t&#39;, &#39;e&#39;)</text>
<polyline fill="none" stroke="black" points="258.5,-1639.5 603.5,-1639.5 "/>
<text text-anchor="middle" x="431" y="-1624.3" font-family="Times,serif" font-size="14.00" fill="#000000">requires_grad=None</text>
<polyline fill="none" stroke="black" points="258.5,-1616.5 603.5,-1616.5 "/>
<text text-anchor="middle" x="431" y="-1601.3" font-family="Times,serif" font-size="14.00" fill="#000000">stride=None</text>
</g>
<!-- primals_1&#45;&gt;buf1 -->
<g id="edge6" class="edge">
<title>primals_1&#45;&gt;buf1</title>
<path fill="none" stroke="black" d="M593.62,-1894.77C573.4,-1870.3 547.46,-1838.92 522.27,-1808.44"/>
<polygon fill="black" stroke="black" points="524.95,-1806.19 515.88,-1800.71 519.56,-1810.65 524.95,-1806.19"/>
</g>
<!-- buf2 -->
<g id="node10" class="node">
<title>buf2</title>
<path fill="#c1ffc1" stroke="black" d="M40.5,-1349.5C40.5,-1349.5 421.5,-1349.5 421.5,-1349.5 427.5,-1349.5 433.5,-1355.5 433.5,-1361.5 433.5,-1361.5 433.5,-1544.5 433.5,-1544.5 433.5,-1550.5 427.5,-1556.5 421.5,-1556.5 421.5,-1556.5 40.5,-1556.5 40.5,-1556.5 34.5,-1556.5 28.5,-1550.5 28.5,-1544.5 28.5,-1544.5 28.5,-1361.5 28.5,-1361.5 28.5,-1355.5 34.5,-1349.5 40.5,-1349.5"/>
<text text-anchor="middle" x="231" y="-1541.3" font-family="Times,serif" font-size="14.00" fill="#000000">name=%buf2</text>
<polyline fill="none" stroke="black" points="28.5,-1533.5 433.5,-1533.5 "/>
<text text-anchor="middle" x="231" y="-1518.3" font-family="Times,serif" font-size="14.00" fill="#000000">op_code=call_function</text>
<polyline fill="none" stroke="black" points="28.5,-1510.5 433.5,-1510.5 "/>
<text text-anchor="middle" x="231" y="-1495.3" font-family="Times,serif" font-size="14.00" fill="#000000">target=torch._inductor.debug.template: fused_addmm</text>
<polyline fill="none" stroke="black" points="28.5,-1487.5 433.5,-1487.5 "/>
<text text-anchor="middle" x="231" y="-1472.3" font-family="Times,serif" font-size="14.00" fill="#000000">kwargs={device: cuda:0,}</text>
<polyline fill="none" stroke="black" points="28.5,-1464.5 433.5,-1464.5 "/>
<text text-anchor="middle" x="231" y="-1449.3" font-family="Times,serif" font-size="14.00" fill="#000000">num_users=2</text>
<polyline fill="none" stroke="black" points="28.5,-1441.5 433.5,-1441.5 "/>
<text text-anchor="middle" x="231" y="-1426.3" font-family="Times,serif" font-size="14.00" fill="#000000">dtype=None</text>
<polyline fill="none" stroke="black" points="28.5,-1418.5 433.5,-1418.5 "/>
<text text-anchor="middle" x="231" y="-1403.3" font-family="Times,serif" font-size="14.00" fill="#000000">shape=(&#39;t&#39;, &#39;e&#39;, &#39;m&#39;, &#39;p&#39;, &#39;l&#39;, &#39;a&#39;, &#39;t&#39;, &#39;e&#39;)</text>
<polyline fill="none" stroke="black" points="28.5,-1395.5 433.5,-1395.5 "/>
<text text-anchor="middle" x="231" y="-1380.3" font-family="Times,serif" font-size="14.00" fill="#000000">requires_grad=None</text>
<polyline fill="none" stroke="black" points="28.5,-1372.5 433.5,-1372.5 "/>
<text text-anchor="middle" x="231" y="-1357.3" font-family="Times,serif" font-size="14.00" fill="#000000">stride=None</text>
</g>
<!-- primals_1&#45;&gt;buf2 -->
<g id="edge7" class="edge">
<title>primals_1&#45;&gt;buf2</title>
<path fill="none" stroke="black" d="M635.05,-1894.68C641.49,-1811.08 649.78,-1637.1 612,-1593 563.81,-1536.76 518.87,-1578.39 443.44,-1557.12"/>
<polygon fill="black" stroke="black" points="444.18,-1553.68 433.59,-1554.03 442.08,-1560.36 444.18,-1553.68"/>
</g>
<!-- primals_2 -->
<g id="node4" class="node">
<title>primals_2</title>
<path fill="AliceBlue" stroke="black" d="M670.5,-1651C670.5,-1651 815.5,-1651 815.5,-1651 821.5,-1651 827.5,-1657 827.5,-1663 827.5,-1663 827.5,-1731 827.5,-1731 827.5,-1737 821.5,-1743 815.5,-1743 815.5,-1743 670.5,-1743 670.5,-1743 664.5,-1743 658.5,-1737 658.5,-1731 658.5,-1731 658.5,-1663 658.5,-1663 658.5,-1657 664.5,-1651 670.5,-1651"/>
<text text-anchor="middle" x="743" y="-1727.8" font-family="Times,serif" font-size="14.00" fill="#000000">name=%primals_2</text>
<polyline fill="none" stroke="black" points="658.5,-1720 827.5,-1720 "/>
<text text-anchor="middle" x="743" y="-1704.8" font-family="Times,serif" font-size="14.00" fill="#000000">op_code=placeholder</text>
<polyline fill="none" stroke="black" points="658.5,-1697 827.5,-1697 "/>
<text text-anchor="middle" x="743" y="-1681.8" font-family="Times,serif" font-size="14.00" fill="#000000">target=primals_2</text>
<polyline fill="none" stroke="black" points="658.5,-1674 827.5,-1674 "/>
<text text-anchor="middle" x="743" y="-1658.8" font-family="Times,serif" font-size="14.00" fill="#000000">num_users=3</text>
</g>
<!-- primals_2&#45;&gt;buf3 -->
<g id="edge8" class="edge">
<title>primals_2&#45;&gt;buf3</title>
<path fill="none" stroke="black" d="M798.7,-1650.77C829.21,-1625.99 868.46,-1594.12 906.44,-1563.27"/>
<polygon fill="black" stroke="black" points="908.97,-1565.73 914.52,-1556.71 904.55,-1560.3 908.97,-1565.73"/>
</g>
<!-- primals_2&#45;&gt;buf2 -->
<g id="edge9" class="edge">
<title>primals_2&#45;&gt;buf2</title>
<path fill="none" stroke="black" d="M710.86,-1650.76C693.68,-1629.94 670.77,-1606.84 645,-1593 567.04,-1551.12 531.58,-1583.02 443.14,-1557.14"/>
<polygon fill="black" stroke="black" points="444.13,-1553.78 433.54,-1554.16 442.06,-1560.47 444.13,-1553.78"/>
</g>
<!-- buf4 -->
<g id="node11" class="node">
<title>buf4</title>
<path fill="#98f5ff" stroke="black" d="M463.5,-1349.5C463.5,-1349.5 816.5,-1349.5 816.5,-1349.5 822.5,-1349.5 828.5,-1355.5 828.5,-1361.5 828.5,-1361.5 828.5,-1544.5 828.5,-1544.5 828.5,-1550.5 822.5,-1556.5 816.5,-1556.5 816.5,-1556.5 463.5,-1556.5 463.5,-1556.5 457.5,-1556.5 451.5,-1550.5 451.5,-1544.5 451.5,-1544.5 451.5,-1361.5 451.5,-1361.5 451.5,-1355.5 457.5,-1349.5 463.5,-1349.5"/>
<text text-anchor="middle" x="640" y="-1541.3" font-family="Times,serif" font-size="14.00" fill="#000000">name=%buf4</text>
<polyline fill="none" stroke="black" points="451.5,-1533.5 828.5,-1533.5 "/>
<text text-anchor="middle" x="640" y="-1518.3" font-family="Times,serif" font-size="14.00" fill="#000000">op_code=call_function</text>
<polyline fill="none" stroke="black" points="451.5,-1510.5 828.5,-1510.5 "/>
<text text-anchor="middle" x="640" y="-1495.3" font-family="Times,serif" font-size="14.00" fill="#000000">target=torch._inductor.debug.compute: fused_mul</text>
<polyline fill="none" stroke="black" points="451.5,-1487.5 828.5,-1487.5 "/>
<text text-anchor="middle" x="640" y="-1472.3" font-family="Times,serif" font-size="14.00" fill="#000000">kwargs={device: cuda:0,}</text>
<polyline fill="none" stroke="black" points="451.5,-1464.5 828.5,-1464.5 "/>
<text text-anchor="middle" x="640" y="-1449.3" font-family="Times,serif" font-size="14.00" fill="#000000">num_users=2</text>
<polyline fill="none" stroke="black" points="451.5,-1441.5 828.5,-1441.5 "/>
<text text-anchor="middle" x="640" y="-1426.3" font-family="Times,serif" font-size="14.00" fill="#000000">dtype=None</text>
<polyline fill="none" stroke="black" points="451.5,-1418.5 828.5,-1418.5 "/>
<text text-anchor="middle" x="640" y="-1403.3" font-family="Times,serif" font-size="14.00" fill="#000000">shape=(256*s4*s5, 1)</text>
<polyline fill="none" stroke="black" points="451.5,-1395.5 828.5,-1395.5 "/>
<text text-anchor="middle" x="640" y="-1380.3" font-family="Times,serif" font-size="14.00" fill="#000000">requires_grad=None</text>
<polyline fill="none" stroke="black" points="451.5,-1372.5 828.5,-1372.5 "/>
<text text-anchor="middle" x="640" y="-1357.3" font-family="Times,serif" font-size="14.00" fill="#000000">stride=None</text>
</g>
<!-- primals_2&#45;&gt;buf4 -->
<g id="edge10" class="edge">
<title>primals_2&#45;&gt;buf4</title>
<path fill="none" stroke="black" d="M723.75,-1650.77C713.51,-1626.71 700.43,-1595.98 687.66,-1565.99"/>
<polygon fill="black" stroke="black" points="690.85,-1564.54 683.72,-1556.71 684.41,-1567.28 690.85,-1564.54"/>
</g>
<!-- primals_4 -->
<g id="node5" class="node">
<title>primals_4</title>
<path fill="AliceBlue" stroke="black" d="M1302.5,-431C1302.5,-431 1447.5,-431 1447.5,-431 1453.5,-431 1459.5,-437 1459.5,-443 1459.5,-443 1459.5,-511 1459.5,-511 1459.5,-517 1453.5,-523 1447.5,-523 1447.5,-523 1302.5,-523 1302.5,-523 1296.5,-523 1290.5,-517 1290.5,-511 1290.5,-511 1290.5,-443 1290.5,-443 1290.5,-437 1296.5,-431 1302.5,-431"/>
<text text-anchor="middle" x="1375" y="-507.8" font-family="Times,serif" font-size="14.00" fill="#000000">name=%primals_4</text>
<polyline fill="none" stroke="black" points="1290.5,-500 1459.5,-500 "/>
<text text-anchor="middle" x="1375" y="-484.8" font-family="Times,serif" font-size="14.00" fill="#000000">op_code=placeholder</text>
<polyline fill="none" stroke="black" points="1290.5,-477 1459.5,-477 "/>
<text text-anchor="middle" x="1375" y="-461.8" font-family="Times,serif" font-size="14.00" fill="#000000">target=primals_4</text>
<polyline fill="none" stroke="black" points="1290.5,-454 1459.5,-454 "/>
<text text-anchor="middle" x="1375" y="-438.8" font-family="Times,serif" font-size="14.00" fill="#000000">num_users=1</text>
</g>
<!-- primals_4&#45;&gt;buf11_buf12 -->
<g id="edge11" class="edge">
<title>primals_4&#45;&gt;buf11_buf12</title>
<path fill="none" stroke="black" d="M1364.72,-430.77C1359.3,-406.92 1352.39,-376.51 1345.63,-346.76"/>
<polygon fill="black" stroke="black" points="1348.97,-345.69 1343.34,-336.71 1342.15,-347.24 1348.97,-345.69"/>
</g>
<!-- primals_3 -->
<g id="node6" class="node">
<title>primals_3</title>
<path fill="AliceBlue" stroke="black" d="M1489.5,-431C1489.5,-431 1634.5,-431 1634.5,-431 1640.5,-431 1646.5,-437 1646.5,-443 1646.5,-443 1646.5,-511 1646.5,-511 1646.5,-517 1640.5,-523 1634.5,-523 1634.5,-523 1489.5,-523 1489.5,-523 1483.5,-523 1477.5,-517 1477.5,-511 1477.5,-511 1477.5,-443 1477.5,-443 1477.5,-437 1483.5,-431 1489.5,-431"/>
<text text-anchor="middle" x="1562" y="-507.8" font-family="Times,serif" font-size="14.00" fill="#000000">name=%primals_3</text>
<polyline fill="none" stroke="black" points="1477.5,-500 1646.5,-500 "/>
<text text-anchor="middle" x="1562" y="-484.8" font-family="Times,serif" font-size="14.00" fill="#000000">op_code=placeholder</text>
<polyline fill="none" stroke="black" points="1477.5,-477 1646.5,-477 "/>
<text text-anchor="middle" x="1562" y="-461.8" font-family="Times,serif" font-size="14.00" fill="#000000">target=primals_3</text>
<polyline fill="none" stroke="black" points="1477.5,-454 1646.5,-454 "/>
<text text-anchor="middle" x="1562" y="-438.8" font-family="Times,serif" font-size="14.00" fill="#000000">num_users=1</text>
</g>
<!-- primals_3&#45;&gt;buf11_buf12 -->
<g id="edge12" class="edge">
<title>primals_3&#45;&gt;buf11_buf12</title>
<path fill="none" stroke="black" d="M1522.76,-430.87C1506.47,-412.58 1487.16,-391.46 1469,-373 1459.52,-363.36 1449.54,-353.5 1439.44,-343.7"/>
<polygon fill="black" stroke="black" points="1441.69,-341.01 1432.06,-336.58 1436.83,-346.05 1441.69,-341.01"/>
</g>
<!-- buf0&#45;&gt;buf1 -->
<g id="edge13" class="edge">
<title>buf0&#45;&gt;buf1</title>
<path fill="none" stroke="black" d="M347.49,-1837.37C352.99,-1828.19 358.58,-1818.87 364.12,-1809.63"/>
<polygon fill="black" stroke="black" points="367.27,-1811.17 369.41,-1800.79 361.27,-1807.57 367.27,-1811.17"/>
</g>
<!-- buf0&#45;&gt;buf2 -->
<g id="edge14" class="edge">
<title>buf0&#45;&gt;buf2</title>
<path fill="none" stroke="black" d="M256.1,-1837.28C253.33,-1825.13 250.86,-1812.84 249,-1801 236.81,-1723.49 232.36,-1635.16 230.93,-1567.02"/>
<polygon fill="black" stroke="black" points="234.43,-1566.62 230.74,-1556.69 227.43,-1566.75 234.43,-1566.62"/>
</g>
<!-- output -->
<g id="node17" class="node">
<title>output</title>
<path fill="PowderBlue" stroke="black" d="M604.5,-0.5C604.5,-0.5 713.5,-0.5 713.5,-0.5 719.5,-0.5 725.5,-6.5 725.5,-12.5 725.5,-12.5 725.5,-80.5 725.5,-80.5 725.5,-86.5 719.5,-92.5 713.5,-92.5 713.5,-92.5 604.5,-92.5 604.5,-92.5 598.5,-92.5 592.5,-86.5 592.5,-80.5 592.5,-80.5 592.5,-12.5 592.5,-12.5 592.5,-6.5 598.5,-0.5 604.5,-0.5"/>
<text text-anchor="middle" x="659" y="-77.3" font-family="Times,serif" font-size="14.00" fill="#000000">name=%output</text>
<polyline fill="none" stroke="black" points="592.5,-69.5 725.5,-69.5 "/>
<text text-anchor="middle" x="659" y="-54.3" font-family="Times,serif" font-size="14.00" fill="#000000">op_code=output</text>
<polyline fill="none" stroke="black" points="592.5,-46.5 725.5,-46.5 "/>
<text text-anchor="middle" x="659" y="-31.3" font-family="Times,serif" font-size="14.00" fill="#000000">target=output</text>
<polyline fill="none" stroke="black" points="592.5,-23.5 725.5,-23.5 "/>
<text text-anchor="middle" x="659" y="-8.3" font-family="Times,serif" font-size="14.00" fill="#000000">num_users=0</text>
</g>
<!-- buf0&#45;&gt;output -->
<g id="edge15" class="edge">
<title>buf0&#45;&gt;output</title>
<path fill="none" stroke="black" d="M181.94,-1837.31C100.16,-1745.3 0,-1602.32 0,-1454 0,-1454 0,-1454 0,-476 0,-284.88 92.96,-231.94 254,-129 307.46,-94.83 480.47,-68.96 582.25,-56.24"/>
<polygon fill="black" stroke="black" points="582.98,-59.68 592.47,-54.98 582.12,-52.73 582.98,-59.68"/>
</g>
<!-- buf9 -->
<g id="node14" class="node">
<title>buf9</title>
<path fill="#ffdab9" stroke="black" d="M699,-617.5C699,-617.5 1063,-617.5 1063,-617.5 1069,-617.5 1075,-623.5 1075,-629.5 1075,-629.5 1075,-812.5 1075,-812.5 1075,-818.5 1069,-824.5 1063,-824.5 1063,-824.5 699,-824.5 699,-824.5 693,-824.5 687,-818.5 687,-812.5 687,-812.5 687,-629.5 687,-629.5 687,-623.5 693,-617.5 699,-617.5"/>
<text text-anchor="middle" x="881" y="-809.3" font-family="Times,serif" font-size="14.00" fill="#000000">name=%buf9</text>
<polyline fill="none" stroke="black" points="687,-801.5 1075,-801.5 "/>
<text text-anchor="middle" x="881" y="-786.3" font-family="Times,serif" font-size="14.00" fill="#000000">op_code=call_function</text>
<polyline fill="none" stroke="black" points="687,-778.5 1075,-778.5 "/>
<text text-anchor="middle" x="881" y="-763.3" font-family="Times,serif" font-size="14.00" fill="#000000">target=torch._inductor.debug.template: fused_bmm</text>
<polyline fill="none" stroke="black" points="687,-755.5 1075,-755.5 "/>
<text text-anchor="middle" x="881" y="-740.3" font-family="Times,serif" font-size="14.00" fill="#000000">kwargs={device: cuda:0,}</text>
<polyline fill="none" stroke="black" points="687,-732.5 1075,-732.5 "/>
<text text-anchor="middle" x="881" y="-717.3" font-family="Times,serif" font-size="14.00" fill="#000000">num_users=1</text>
<polyline fill="none" stroke="black" points="687,-709.5 1075,-709.5 "/>
<text text-anchor="middle" x="881" y="-694.3" font-family="Times,serif" font-size="14.00" fill="#000000">dtype=None</text>
<polyline fill="none" stroke="black" points="687,-686.5 1075,-686.5 "/>
<text text-anchor="middle" x="881" y="-671.3" font-family="Times,serif" font-size="14.00" fill="#000000">shape=(&#39;t&#39;, &#39;e&#39;, &#39;m&#39;, &#39;p&#39;, &#39;l&#39;, &#39;a&#39;, &#39;t&#39;, &#39;e&#39;)</text>
<polyline fill="none" stroke="black" points="687,-663.5 1075,-663.5 "/>
<text text-anchor="middle" x="881" y="-648.3" font-family="Times,serif" font-size="14.00" fill="#000000">requires_grad=None</text>
<polyline fill="none" stroke="black" points="687,-640.5 1075,-640.5 "/>
<text text-anchor="middle" x="881" y="-625.3" font-family="Times,serif" font-size="14.00" fill="#000000">stride=None</text>
</g>
<!-- buf3&#45;&gt;buf9 -->
<g id="edge16" class="edge">
<title>buf3&#45;&gt;buf9</title>
<path fill="none" stroke="black" d="M1018.5,-1349.34C988.74,-1213.58 936.48,-975.15 905.68,-834.59"/>
<polygon fill="black" stroke="black" points="909.06,-833.66 903.5,-824.64 902.22,-835.16 909.06,-833.66"/>
</g>
<!-- buf3&#45;&gt;output -->
<g id="edge17" class="edge">
<title>buf3&#45;&gt;output</title>
<path fill="none" stroke="black" d="M1061.82,-1349.15C1079.83,-1251.11 1103,-1099.12 1103,-966 1103,-966 1103,-966 1103,-476 1103,-261.33 937.64,-259.26 767,-129 754.17,-119.2 740.44,-108.79 727.22,-98.8"/>
<polygon fill="black" stroke="black" points="729.16,-95.88 719.07,-92.65 724.94,-101.47 729.16,-95.88"/>
</g>
<!-- buf1&#45;&gt;buf4 -->
<g id="edge18" class="edge">
<title>buf1&#45;&gt;buf4</title>
<path fill="none" stroke="black" d="M519.63,-1593.37C527.89,-1583.82 536.27,-1574.1 544.58,-1564.48"/>
<polygon fill="black" stroke="black" points="547.34,-1566.64 551.23,-1556.79 542.04,-1562.07 547.34,-1566.64"/>
</g>
<!-- buf5 -->
<g id="node12" class="node">
<title>buf5</title>
<path fill="#ffdab9" stroke="black" d="M253,-1105.5C253,-1105.5 617,-1105.5 617,-1105.5 623,-1105.5 629,-1111.5 629,-1117.5 629,-1117.5 629,-1300.5 629,-1300.5 629,-1306.5 623,-1312.5 617,-1312.5 617,-1312.5 253,-1312.5 253,-1312.5 247,-1312.5 241,-1306.5 241,-1300.5 241,-1300.5 241,-1117.5 241,-1117.5 241,-1111.5 247,-1105.5 253,-1105.5"/>
<text text-anchor="middle" x="435" y="-1297.3" font-family="Times,serif" font-size="14.00" fill="#000000">name=%buf5</text>
<polyline fill="none" stroke="black" points="241,-1289.5 629,-1289.5 "/>
<text text-anchor="middle" x="435" y="-1274.3" font-family="Times,serif" font-size="14.00" fill="#000000">op_code=call_function</text>
<polyline fill="none" stroke="black" points="241,-1266.5 629,-1266.5 "/>
<text text-anchor="middle" x="435" y="-1251.3" font-family="Times,serif" font-size="14.00" fill="#000000">target=torch._inductor.debug.template: fused_bmm</text>
<polyline fill="none" stroke="black" points="241,-1243.5 629,-1243.5 "/>
<text text-anchor="middle" x="435" y="-1228.3" font-family="Times,serif" font-size="14.00" fill="#000000">kwargs={device: cuda:0,}</text>
<polyline fill="none" stroke="black" points="241,-1220.5 629,-1220.5 "/>
<text text-anchor="middle" x="435" y="-1205.3" font-family="Times,serif" font-size="14.00" fill="#000000">num_users=1</text>
<polyline fill="none" stroke="black" points="241,-1197.5 629,-1197.5 "/>
<text text-anchor="middle" x="435" y="-1182.3" font-family="Times,serif" font-size="14.00" fill="#000000">dtype=None</text>
<polyline fill="none" stroke="black" points="241,-1174.5 629,-1174.5 "/>
<text text-anchor="middle" x="435" y="-1159.3" font-family="Times,serif" font-size="14.00" fill="#000000">shape=(&#39;t&#39;, &#39;e&#39;, &#39;m&#39;, &#39;p&#39;, &#39;l&#39;, &#39;a&#39;, &#39;t&#39;, &#39;e&#39;)</text>
<polyline fill="none" stroke="black" points="241,-1151.5 629,-1151.5 "/>
<text text-anchor="middle" x="435" y="-1136.3" font-family="Times,serif" font-size="14.00" fill="#000000">requires_grad=None</text>
<polyline fill="none" stroke="black" points="241,-1128.5 629,-1128.5 "/>
<text text-anchor="middle" x="435" y="-1113.3" font-family="Times,serif" font-size="14.00" fill="#000000">stride=None</text>
</g>
<!-- buf2&#45;&gt;buf5 -->
<g id="edge19" class="edge">
<title>buf2&#45;&gt;buf5</title>
<path fill="none" stroke="black" d="M317.51,-1349.37C325.57,-1339.82 333.76,-1330.1 341.87,-1320.48"/>
<polygon fill="black" stroke="black" points="344.58,-1322.69 348.35,-1312.79 339.23,-1318.18 344.58,-1322.69"/>
</g>
<!-- buf2&#45;&gt;output -->
<g id="edge20" class="edge">
<title>buf2&#45;&gt;output</title>
<path fill="none" stroke="black" d="M224.31,-1349.18C218.5,-1250.85 211,-1098.37 211,-966 211,-966 211,-966 211,-476 211,-272.56 455.24,-135.94 583.04,-78.37"/>
<polygon fill="black" stroke="black" points="584.7,-81.46 592.41,-74.2 581.85,-75.07 584.7,-81.46"/>
</g>
<!-- buf4&#45;&gt;buf5 -->
<g id="edge21" class="edge">
<title>buf4&#45;&gt;buf5</title>
<path fill="none" stroke="black" d="M553.06,-1349.37C544.97,-1339.82 536.74,-1330.1 528.59,-1320.48"/>
<polygon fill="black" stroke="black" points="531.21,-1318.16 522.07,-1312.79 525.87,-1322.68 531.21,-1318.16"/>
</g>
<!-- buf4&#45;&gt;output -->
<g id="edge22" class="edge">
<title>buf4&#45;&gt;output</title>
<path fill="none" stroke="black" d="M646.35,-1349.18C651.88,-1250.84 659,-1098.36 659,-966 659,-966 659,-966 659,-476 659,-341.88 659,-184.14 659,-102.58"/>
<polygon fill="black" stroke="black" points="662.5,-102.54 659,-92.54 655.5,-102.54 662.5,-102.54"/>
</g>
<!-- buf6_buf7_buf8 -->
<g id="node13" class="node">
<title>buf6_buf7_buf8</title>
<path fill="Salmon" stroke="black" d="M251.5,-861.5C251.5,-861.5 618.5,-861.5 618.5,-861.5 624.5,-861.5 630.5,-867.5 630.5,-873.5 630.5,-873.5 630.5,-1056.5 630.5,-1056.5 630.5,-1062.5 624.5,-1068.5 618.5,-1068.5 618.5,-1068.5 251.5,-1068.5 251.5,-1068.5 245.5,-1068.5 239.5,-1062.5 239.5,-1056.5 239.5,-1056.5 239.5,-873.5 239.5,-873.5 239.5,-867.5 245.5,-861.5 251.5,-861.5"/>
<text text-anchor="middle" x="435" y="-1053.3" font-family="Times,serif" font-size="14.00" fill="#000000">name=%buf6_buf7_buf8</text>
<polyline fill="none" stroke="black" points="239.5,-1045.5 630.5,-1045.5 "/>
<text text-anchor="middle" x="435" y="-1030.3" font-family="Times,serif" font-size="14.00" fill="#000000">op_code=call_function</text>
<polyline fill="none" stroke="black" points="239.5,-1022.5 630.5,-1022.5 "/>
<text text-anchor="middle" x="435" y="-1007.3" font-family="Times,serif" font-size="14.00" fill="#000000">target=torch._inductor.debug.fused: fused__softmax</text>
<polyline fill="none" stroke="black" points="239.5,-999.5 630.5,-999.5 "/>
<text text-anchor="middle" x="435" y="-984.3" font-family="Times,serif" font-size="14.00" fill="#000000">kwargs={device: cuda:0,}</text>
<polyline fill="none" stroke="black" points="239.5,-976.5 630.5,-976.5 "/>
<text text-anchor="middle" x="435" y="-961.3" font-family="Times,serif" font-size="14.00" fill="#000000">num_users=2</text>
<polyline fill="none" stroke="black" points="239.5,-953.5 630.5,-953.5 "/>
<text text-anchor="middle" x="435" y="-938.3" font-family="Times,serif" font-size="14.00" fill="#000000">dtype=None</text>
<polyline fill="none" stroke="black" points="239.5,-930.5 630.5,-930.5 "/>
<text text-anchor="middle" x="435" y="-915.3" font-family="Times,serif" font-size="14.00" fill="#000000">shape=(8*s4*s5, s4)</text>
<polyline fill="none" stroke="black" points="239.5,-907.5 630.5,-907.5 "/>
<text text-anchor="middle" x="435" y="-892.3" font-family="Times,serif" font-size="14.00" fill="#000000">requires_grad=None</text>
<polyline fill="none" stroke="black" points="239.5,-884.5 630.5,-884.5 "/>
<text text-anchor="middle" x="435" y="-869.3" font-family="Times,serif" font-size="14.00" fill="#000000">stride=None</text>
</g>
<!-- buf5&#45;&gt;buf6_buf7_buf8 -->
<g id="edge23" class="edge">
<title>buf5&#45;&gt;buf6_buf7_buf8</title>
<path fill="none" stroke="black" d="M435,-1105.37C435,-1096.67 435,-1087.83 435,-1079.06"/>
<polygon fill="black" stroke="black" points="438.5,-1078.79 435,-1068.79 431.5,-1078.79 438.5,-1078.79"/>
</g>
<!-- buf6_buf7_buf8&#45;&gt;buf9 -->
<g id="edge24" class="edge">
<title>buf6_buf7_buf8&#45;&gt;buf9</title>
<path fill="none" stroke="black" d="M624.14,-861.37C643.6,-850.81 663.41,-840.07 682.96,-829.46"/>
<polygon fill="black" stroke="black" points="684.8,-832.44 691.92,-824.6 681.46,-826.29 684.8,-832.44"/>
</g>
<!-- buf6_buf7_buf8&#45;&gt;output -->
<g id="edge25" class="edge">
<title>buf6_buf7_buf8&#45;&gt;output</title>
<path fill="none" stroke="black" d="M460.15,-861.09C507.63,-666.81 608.99,-252.13 645.52,-102.65"/>
<polygon fill="black" stroke="black" points="648.96,-103.32 647.93,-92.78 642.16,-101.66 648.96,-103.32"/>
</g>
<!-- buf10 -->
<g id="node15" class="node">
<title>buf10</title>
<path fill="#fff68f" stroke="black" d="M699.5,-373.5C699.5,-373.5 1062.5,-373.5 1062.5,-373.5 1068.5,-373.5 1074.5,-379.5 1074.5,-385.5 1074.5,-385.5 1074.5,-568.5 1074.5,-568.5 1074.5,-574.5 1068.5,-580.5 1062.5,-580.5 1062.5,-580.5 699.5,-580.5 699.5,-580.5 693.5,-580.5 687.5,-574.5 687.5,-568.5 687.5,-568.5 687.5,-385.5 687.5,-385.5 687.5,-379.5 693.5,-373.5 699.5,-373.5"/>
<text text-anchor="middle" x="881" y="-565.3" font-family="Times,serif" font-size="14.00" fill="#000000">name=%buf10</text>
<polyline fill="none" stroke="black" points="687.5,-557.5 1074.5,-557.5 "/>
<text text-anchor="middle" x="881" y="-542.3" font-family="Times,serif" font-size="14.00" fill="#000000">op_code=call_function</text>
<polyline fill="none" stroke="black" points="687.5,-534.5 1074.5,-534.5 "/>
<text text-anchor="middle" x="881" y="-519.3" font-family="Times,serif" font-size="14.00" fill="#000000">target=torch._inductor.debug.compute: fused_clone</text>
<polyline fill="none" stroke="black" points="687.5,-511.5 1074.5,-511.5 "/>
<text text-anchor="middle" x="881" y="-496.3" font-family="Times,serif" font-size="14.00" fill="#000000">kwargs={device: cuda:0,}</text>
<polyline fill="none" stroke="black" points="687.5,-488.5 1074.5,-488.5 "/>
<text text-anchor="middle" x="881" y="-473.3" font-family="Times,serif" font-size="14.00" fill="#000000">num_users=2</text>
<polyline fill="none" stroke="black" points="687.5,-465.5 1074.5,-465.5 "/>
<text text-anchor="middle" x="881" y="-450.3" font-family="Times,serif" font-size="14.00" fill="#000000">dtype=None</text>
<polyline fill="none" stroke="black" points="687.5,-442.5 1074.5,-442.5 "/>
<text text-anchor="middle" x="881" y="-427.3" font-family="Times,serif" font-size="14.00" fill="#000000">shape=(256*s4*s5, 1)</text>
<polyline fill="none" stroke="black" points="687.5,-419.5 1074.5,-419.5 "/>
<text text-anchor="middle" x="881" y="-404.3" font-family="Times,serif" font-size="14.00" fill="#000000">requires_grad=None</text>
<polyline fill="none" stroke="black" points="687.5,-396.5 1074.5,-396.5 "/>
<text text-anchor="middle" x="881" y="-381.3" font-family="Times,serif" font-size="14.00" fill="#000000">stride=None</text>
</g>
<!-- buf9&#45;&gt;buf10 -->
<g id="edge26" class="edge">
<title>buf9&#45;&gt;buf10</title>
<path fill="none" stroke="black" d="M881,-617.37C881,-608.67 881,-599.83 881,-591.06"/>
<polygon fill="black" stroke="black" points="884.5,-590.79 881,-580.79 877.5,-590.79 884.5,-590.79"/>
</g>
<!-- buf10&#45;&gt;buf11_buf12 -->
<g id="edge27" class="edge">
<title>buf10&#45;&gt;buf11_buf12</title>
<path fill="none" stroke="black" d="M1067.18,-373.37C1086.33,-362.81 1105.82,-352.07 1125.07,-341.46"/>
<polygon fill="black" stroke="black" points="1126.82,-344.49 1133.89,-336.6 1123.44,-338.36 1126.82,-344.49"/>
</g>
<!-- buf10&#45;&gt;output -->
<g id="edge28" class="edge">
<title>buf10&#45;&gt;output</title>
<path fill="none" stroke="black" d="M827.83,-373.36C783.66,-288.12 722.55,-170.16 687.25,-102.04"/>
<polygon fill="black" stroke="black" points="690.16,-100.03 682.45,-92.76 683.94,-103.25 690.16,-100.03"/>
</g>
<!-- buf11_buf12&#45;&gt;output -->
<g id="edge29" class="edge">
<title>buf11_buf12&#45;&gt;output</title>
<path fill="none" stroke="black" d="M1130.84,-133.86C1126.21,-132.16 1121.59,-130.54 1117,-129 987.07,-85.54 828.22,-63.89 735.84,-54.23"/>
<polygon fill="black" stroke="black" points="736.04,-50.73 725.73,-53.19 735.32,-57.69 736.04,-50.73"/>
</g>
</g>
</svg>
